<?xml version="1.0" encoding="UTF-8" standalone="no"?>
<svg
   xmlns:dc="http://purl.org/dc/elements/1.1/"
   xmlns:cc="http://creativecommons.org/ns#"
   xmlns:rdf="http://www.w3.org/1999/02/22-rdf-syntax-ns#"
   xmlns:svg="http://www.w3.org/2000/svg"
   xmlns="http://www.w3.org/2000/svg"
   id="svg438"
   version="1.1"
   viewBox="0 0 100.16177 41.000206"
   height="41.000206mm"
   width="100.16177mm">
  <defs
     id="defs432" />
  <metadata
     id="metadata435">
    <rdf:RDF>
      <cc:Work
         rdf:about="">
        <dc:format>image/svg+xml</dc:format>
        <dc:type
           rdf:resource="http://purl.org/dc/dcmitype/StillImage" />
        <dc:title />
      </cc:Work>
    </rdf:RDF>
  </metadata>
  <g
     transform="translate(343.39041,-96.58323)"
     id="layer1">
    <g
       id="text57"
       style="font-variant:normal;font-weight:normal;font-stretch:normal;font-size:21.51944351px;font-family:Montserrat;-inkscape-font-specification:Montserrat-Regular;writing-mode:lr-tb;fill:#ffffff;fill-opacity:1;fill-rule:nonzero;stroke:none;stroke-width:0.35277778"
       aria-label="mo">
      <path
         id="path57"
         style="fill:#ffffff;stroke-width:0.35277778"
         d="m -270.84795,121.27026 q 0.72502,-1.30293 1.73374,-1.92288 1.00873,-0.61994 2.37471,-0.61994 1.83882,0 2.83703,1.29243 0.99822,1.28192 0.99822,3.65662 v 7.1031 h -1.9439 v -7.04006 q 0,-1.69171 -0.59893,-2.5113 -0.59893,-0.81959 -1.82831,-0.81959 -1.50258,0 -2.3747,0.99822 -0.87213,0.99822 -0.87213,2.72145 v 6.65128 h -1.94389 v -7.04006 q 0,-1.70222 -0.59893,-2.5113 -0.59893,-0.81959 -1.84933,-0.81959 -1.48156,0 -2.35369,1.00873 -0.87213,0.99821 -0.87213,2.71094 v 6.65128 h -1.94389 v -11.76845 h 1.94389 v 1.82831 q 0.66198,-1.08227 1.58664,-1.59714 0.92467,-0.51487 2.19608,-0.51487 1.28192,0 2.17506,0.65147 0.90365,0.65146 1.33446,1.89135 z" />
      <path
         id="path59"
         style="fill:#ffffff;stroke-width:0.35277778"
         d="m -253.62951,120.36661 q -1.55512,0 -2.45877,1.21888 -0.90365,1.20837 -0.90365,3.32038 0,2.11202 0.89314,3.33089 0.90365,1.20837 2.46928,1.20837 1.5446,0 2.44825,-1.21888 0.90365,-1.21887 0.90365,-3.32038 0,-2.091 -0.90365,-3.30987 -0.90365,-1.22939 -2.44825,-1.22939 z m 0,-1.63917 q 2.5218,0 3.96134,1.63917 1.43953,1.63918 1.43953,4.53926 0,2.88958 -1.43953,4.53926 -1.43954,1.63918 -3.96134,1.63918 -2.53232,0 -3.97186,-1.63918 -1.42902,-1.64968 -1.42902,-4.53926 0,-2.90008 1.42902,-4.53926 1.43954,-1.63917 3.97186,-1.63917 z" />
    </g>
    <g
       style="fill:#ffffff"
       transform="matrix(0.35277777,0,0,-0.35277777,-522.98847,227.11292)"
       id="g399">
      <g
         style="fill:#ffffff"
         id="g197"
         transform="translate(666.9517,329.6341)">
        <path
           d="m 0,0 5.659,12.012 c -7.507,4.966 -17.787,8.316 -28.297,8.316 -17.556,0 -29.453,-8.663 -29.453,-22.522 0,-28.76 43.659,-18.711 43.659,-36.729 0,-6.237 -5.659,-9.818 -15.13,-9.818 -8.662,0 -19.058,4.158 -27.373,11.781 l -5.891,-11.781 c 8.316,-7.623 20.328,-12.82 33.033,-12.82 17.787,0 30.492,8.893 30.492,23.331 0.116,29.105 -43.543,19.635 -43.543,37.306 0,5.428 5.197,8.432 13.167,8.432 C -17.556,7.508 -8.778,5.313 0,0"
           style="fill:#ffffff;fill-opacity:1;fill-rule:nonzero;stroke:none"
           id="path199" />
      </g>
      <g
         style="fill:#ffffff"
         id="g201"
         transform="translate(608.9711,308.9596)">
        <path
           d="M 0,0 C 0,16.56 -9.633,30.303 -23.973,36.772 L -29.332,25.279 C -20.22,20.562 -13.976,11.149 -13.976,0 c 0,-16.055 -12.936,-28.76 -28.759,-28.76 -15.824,0 -29.106,12.705 -29.106,28.76 0,11.116 6.315,20.511 15.489,25.242 l -5.383,11.544 C -76.071,30.344 -85.701,16.64 -85.701,0 c 0,-23.1 18.711,-41.002 42.85,-41.002 C -18.711,-41.002 0,-23.1 0,0"
           style="fill:#ffffff;fill-opacity:1;fill-rule:nonzero;stroke:none"
           id="path203" />
      </g>
      <path
         d="m 559.855,321.316 h 12.454 v 34.01 h -12.454 z"
         style="fill:#ffffff;fill-opacity:1;fill-rule:nonzero;stroke:none"
         id="path205" />
      <g
         style="fill:#ffffff"
         id="g215"
         transform="translate(697.8474,337.1072)">
        <path
           d="m 0,0 -9.868,-10.109 v -5.584 h 23.732 v 6.739 H 0.578 l 6.065,6.306 c 2.375,2.471 4.003,4.501 4.886,6.09 0.882,1.588 1.324,3.249 1.324,4.982 0,3.177 -1.1,5.688 -3.298,7.534 -2.198,1.845 -4.75,2.767 -7.654,2.767 -2.904,0 -5.295,-0.625 -7.172,-1.877 -1.877,-1.251 -3.603,-3.097 -5.175,-5.536 L -4.429,7.75 c 1.894,3.016 3.9,4.525 6.018,4.525 1.155,0 2.101,-0.378 2.84,-1.131 C 5.167,10.389 5.536,9.451 5.536,8.328 5.536,7.204 5.11,6.041 4.26,4.838 3.409,3.634 1.989,2.022 0,0"
           style="fill:#ffffff;fill-opacity:1;fill-rule:nonzero;stroke:none"
           id="path217" />
      </g>
    </g>
  </g>
</svg>
