<?xml version="1.0" encoding="UTF-8" standalone="no"?>
<!-- Created with Inkscape (http://www.inkscape.org/) -->

<svg
   xmlns:dc="http://purl.org/dc/elements/1.1/"
   xmlns:cc="http://creativecommons.org/ns#"
   xmlns:rdf="http://www.w3.org/1999/02/22-rdf-syntax-ns#"
   xmlns:svg="http://www.w3.org/2000/svg"
   xmlns="http://www.w3.org/2000/svg"
   xmlns:sodipodi="http://sodipodi.sourceforge.net/DTD/sodipodi-0.dtd"
   xmlns:inkscape="http://www.inkscape.org/namespaces/inkscape"
   version="1.1"
   id="svg3699"
   xml:space="preserve"
   width="154.39932"
   height="72.00013"
   viewBox="0 0 154.39932 72.00013"
   sodipodi:docname="os2_logo_white.svg"
   inkscape:version="0.92.0 r"><metadata
     id="metadata3705"><rdf:RDF><cc:Work
         rdf:about=""><dc:format>image/svg+xml</dc:format><dc:type
           rdf:resource="http://purl.org/dc/dcmitype/StillImage" /><dc:title></dc:title></cc:Work></rdf:RDF></metadata><defs
     id="defs3703"><clipPath
       clipPathUnits="userSpaceOnUse"
       id="clipPath3717"><path
         d="M 0,0 H 245.882 V 56 H 0 Z"
         id="path3715"
         inkscape:connector-curvature="0" /></clipPath></defs><sodipodi:namedview
     pagecolor="#ffffff"
     bordercolor="#666666"
     borderopacity="1"
     objecttolerance="10"
     gridtolerance="10"
     guidetolerance="10"
     inkscape:pageopacity="0"
     inkscape:pageshadow="2"
     inkscape:window-width="1920"
     inkscape:window-height="1080"
     id="namedview3701"
     showgrid="false"
     inkscape:zoom="5.374529"
     inkscape:cx="162.58761"
     inkscape:cy="35.999735"
     inkscape:window-x="0"
     inkscape:window-y="0"
     inkscape:window-maximized="0"
     inkscape:current-layer="g3711" /><g
     id="g3707"
     inkscape:groupmode="layer"
     inkscape:label="os2_logo_rgb"
     transform="matrix(1.3333333,0,0,-1.3333333,-1.3337333,73.333731)"><g
       id="g3709" /><g
       id="g3711"><path
         inkscape:connector-curvature="0"
         id="path3789"
         style="fill:#ffffff;fill-opacity:1;fill-rule:nonzero;stroke:none"
         d="m 89.2941,38.901 3.478,7.382 c -4.614,3.052 -10.931,5.11 -17.389,5.11 -10.789,0 -18.099,-5.324 -18.099,-13.84 0,-17.674 26.828,-11.498 26.828,-22.571 0,-3.832 -3.477,-6.033 -9.297,-6.033 -5.323,0 -11.711,2.555 -16.822,7.24 l -3.619,-7.24 c 5.11,-4.684 12.492,-7.878 20.299,-7.878 10.93,0 18.738,5.465 18.738,14.337 0.07,17.886 -26.758,12.066 -26.758,22.925 0,3.336 3.194,5.182 8.091,5.182 3.762,0 9.156,-1.349 14.55,-4.614" /><path
         inkscape:connector-curvature="0"
         id="path3791"
         style="fill:#ffffff;fill-opacity:1;fill-rule:nonzero;stroke:none"
         d="m 53.6643,26.1962 c 0,10.176 -5.92,18.622 -14.732,22.597 l -3.293,-7.063 c 5.6,-2.898 9.437,-8.683 9.437,-15.534 0,-9.866 -7.95,-17.673 -17.673,-17.673 -9.724,0 -17.886,7.807 -17.886,17.673 0,6.831 3.88,12.604 9.518,15.512 l -3.308,7.093 c -8.81,-3.958 -14.727,-12.38 -14.727,-22.605 0,-14.195 11.498,-25.196 26.332,-25.196 14.834,0 26.332,11.001 26.332,25.196" /><path
         inkscape:connector-curvature="0"
         id="path3793"
         style="fill:#ffffff;fill-opacity:1;fill-rule:nonzero;stroke:none"
         d="m 23.482,33.79 h 7.653 v 20.899 h -7.653 z" /><path
         inkscape:connector-curvature="0"
         id="path3795"
         style="fill:#ffffff;fill-opacity:1;fill-rule:nonzero;stroke:none"
         d="m 108.2798,43.4933 -6.064,-6.212 v -3.432 h 14.584 v 4.142 h -8.165 l 3.727,3.875 c 1.459,1.518 2.46,2.766 3.003,3.742 0.542,0.976 0.813,1.997 0.813,3.062 0,1.952 -0.676,3.495 -2.026,4.629 -1.351,1.134 -2.919,1.701 -4.704,1.701 -1.784,0 -3.254,-0.384 -4.407,-1.154 -1.154,-0.768 -2.214,-1.903 -3.18,-3.402 l 3.697,-2.189 c 1.164,1.854 2.396,2.781 3.698,2.781 0.71,0 1.292,-0.232 1.746,-0.695 0.453,-0.464 0.68,-1.04 0.68,-1.73 0,-0.691 -0.262,-1.406 -0.784,-2.145 -0.523,-0.74 -1.396,-1.73 -2.618,-2.973" /></g></g></svg>