<?xml version="1.0" encoding="UTF-8" standalone="no"?>
<!-- Created with Inkscape (http://www.inkscape.org/) -->

<svg
   xmlns:dc="http://purl.org/dc/elements/1.1/"
   xmlns:cc="http://creativecommons.org/ns#"
   xmlns:rdf="http://www.w3.org/1999/02/22-rdf-syntax-ns#"
   xmlns:svg="http://www.w3.org/2000/svg"
   xmlns="http://www.w3.org/2000/svg"
   xmlns:sodipodi="http://sodipodi.sourceforge.net/DTD/sodipodi-0.dtd"
   xmlns:inkscape="http://www.inkscape.org/namespaces/inkscape"
   width="350.76886"
   height="127.16613"
   viewBox="0 0 92.807591 33.64604"
   version="1.1"
   id="svg460"
   inkscape:version="0.92.0 r"
   sodipodi:docname="os2_mo_white.svg">
  <defs
     id="defs454" />
  <sodipodi:namedview
     id="base"
     pagecolor="#ffffff"
     bordercolor="#666666"
     borderopacity="1.0"
     inkscape:pageopacity="0.0"
     inkscape:pageshadow="2"
     inkscape:zoom="0.35"
     inkscape:cx="89.670126"
     inkscape:cy="-233.55979"
     inkscape:document-units="mm"
     inkscape:current-layer="layer1"
     showgrid="false"
     inkscape:window-width="2520"
     inkscape:window-height="810"
     inkscape:window-x="0"
     inkscape:window-y="22"
     inkscape:window-maximized="0"
     inkscape:pagecheckerboard="true"
     units="px"
     fit-margin-top="5"
     fit-margin-left="5"
     fit-margin-bottom="5"
     fit-margin-right="5" />
  <metadata
     id="metadata457">
    <rdf:RDF>
      <cc:Work
         rdf:about="">
        <dc:format>image/svg+xml</dc:format>
        <dc:type
           rdf:resource="http://purl.org/dc/dcmitype/StillImage" />
        <dc:title></dc:title>
      </cc:Work>
    </rdf:RDF>
  </metadata>
  <g
     inkscape:label="Layer 1"
     inkscape:groupmode="layer"
     id="layer1"
     transform="translate(-82.108112,-53.391263)">
    <text
       style="font-variant:normal;font-weight:normal;font-stretch:normal;font-size:21.51944351px;font-family:Montserrat;-inkscape-font-specification:Montserrat-Regular;writing-mode:lr-tb;fill:#ffffff;fill-opacity:1;fill-rule:nonzero;stroke:none;stroke-width:0.35277775"
       id="text57"
       x="139.78296"
       y="83.91053">
      <tspan
         style="fill:#ffffff;stroke-width:0.35277775"
         x="139.78296 161.60368"
         y="83.91053"
         sodipodi:role="line"
         id="tspan55">mo</tspan>
    </text>
    <g
       transform="matrix(0.35277777,0,0,-0.35277777,-101.16703,180.24387)"
       id="g397"
       style="fill:#ffffff">
      <g
         transform="translate(666.9517,329.6341)"
         id="g197"
         style="fill:#ffffff">
        <path
           inkscape:connector-curvature="0"
           id="path199"
           style="fill:#ffffff;fill-opacity:1;fill-rule:nonzero;stroke:none"
           d="m 0,0 5.659,12.012 c -7.507,4.966 -17.787,8.316 -28.297,8.316 -17.556,0 -29.453,-8.663 -29.453,-22.522 0,-28.76 43.659,-18.711 43.659,-36.729 0,-6.237 -5.659,-9.818 -15.13,-9.818 -8.662,0 -19.058,4.158 -27.373,11.781 l -5.891,-11.781 c 8.316,-7.623 20.328,-12.82 33.033,-12.82 17.787,0 30.492,8.893 30.492,23.331 0.116,29.105 -43.543,19.635 -43.543,37.306 0,5.428 5.197,8.432 13.167,8.432 C -17.556,7.508 -8.778,5.313 0,0" />
      </g>
      <g
         transform="translate(608.9711,308.9596)"
         id="g201"
         style="fill:#ffffff">
        <path
           inkscape:connector-curvature="0"
           id="path203"
           style="fill:#ffffff;fill-opacity:1;fill-rule:nonzero;stroke:none"
           d="M 0,0 C 0,16.56 -9.633,30.303 -23.973,36.772 L -29.332,25.279 C -20.22,20.562 -13.976,11.149 -13.976,0 c 0,-16.055 -12.936,-28.76 -28.759,-28.76 -15.824,0 -29.106,12.705 -29.106,28.76 0,11.116 6.315,20.511 15.489,25.242 l -5.383,11.544 C -76.071,30.344 -85.701,16.64 -85.701,0 c 0,-23.1 18.711,-41.002 42.85,-41.002 C -18.711,-41.002 0,-23.1 0,0" />
      </g>
      <path
         inkscape:connector-curvature="0"
         id="path205"
         style="fill:#ffffff;fill-opacity:1;fill-rule:nonzero;stroke:none"
         d="m 559.855,321.316 h 12.454 v 34.01 h -12.454 z" />
      <path
         d="m 697.8474,337.1072 -9.868,-10.109 v -5.584 h 23.732 v 6.739 h -13.286 l 6.065,6.306 c 2.375,2.471 4.003,4.501 4.886,6.09 0.882,1.588 1.324,3.249 1.324,4.982 0,3.177 -1.1,5.688 -3.298,7.534 -2.198,1.845 -4.75,2.767 -7.654,2.767 -2.904,0 -5.295,-0.625 -7.172,-1.877 -1.877,-1.251 -3.603,-3.097 -5.175,-5.536 l 6.017,-3.562 c 1.894,3.016 3.9,4.525 6.018,4.525 1.155,0 2.101,-0.378 2.84,-1.131 0.738,-0.755 1.107,-1.693 1.107,-2.816 0,-1.124 -0.426,-2.287 -1.276,-3.49 -0.851,-1.204 -2.271,-2.816 -4.26,-4.838"
         style="fill:#ffffff;fill-opacity:1;fill-rule:nonzero;stroke:none"
         id="path217"
         inkscape:connector-curvature="0" />
    </g>
  </g>
</svg>
