<svg version="1.1" viewBox="0.0 0.0 908.8005249343832 565.6010498687664" fill="none" stroke="none" stroke-linecap="square" stroke-miterlimit="10" xmlns:xlink="http://www.w3.org/1999/xlink" xmlns="http://www.w3.org/2000/svg"><clipPath id="p.0"><path d="m0 0l908.80054 0l0 565.6011l-908.80054 0l0 -565.6011z" clip-rule="nonzero"/></clipPath><g clip-path="url(#p.0)"><path fill="#000000" fill-opacity="0.0" d="m0 0l908.80054 0l0 565.6011l-908.80054 0z" fill-rule="evenodd"/><path fill="#cfe2f3" d="m12.488189 332.97638l887.0237 0l0 219.59058l-887.0237 0z" fill-rule="evenodd"/><path stroke="#000000" stroke-width="1.0" stroke-linejoin="round" stroke-linecap="butt" d="m12.488189 332.97638l887.0237 0l0 219.59058l-887.0237 0z" fill-rule="evenodd"/><path fill="#000000" fill-opacity="0.0" d="m12.488189 329.9239l146.80315 0l0 42.015747l-146.80315 0z" fill-rule="evenodd"/><path fill="#000000" d="m22.847565 356.84387l0 -13.359375l1.78125 0l0 6.625l6.625 -6.625l2.390625 0l-5.59375 5.421875l5.84375 7.9375l-2.328125 0l-4.765625 -6.765625l-2.171875 2.140625l0 4.625l-1.78125 0zm18.646698 0l0 -1.421875q-1.125 1.640625 -3.0625 1.640625q-0.859375 0 -1.609375 -0.328125q-0.734375 -0.328125 -1.09375 -0.828125q-0.359375 -0.5 -0.5 -1.21875q-0.109375 -0.46875 -0.109375 -1.53125l0 -5.984375l1.640625 0l0 5.359375q0 1.28125 0.109375 1.734375q0.15625 0.640625 0.65625 1.015625q0.5 0.375 1.234375 0.375q0.734375 0 1.375 -0.375q0.65625 -0.390625 0.921875 -1.03125q0.265625 -0.65625 0.265625 -1.890625l0 -5.1875l1.640625 0l0 9.671875l-1.46875 0zm4.047592 0l0 -9.671875l1.46875 0l0 1.375q1.0625 -1.59375 3.078125 -1.59375q0.875 0 1.609375 0.3125q0.734375 0.3125 1.09375 0.828125q0.375 0.5 0.515625 1.203125q0.09375 0.453125 0.09375 1.59375l0 5.953125l-1.640625 0l0 -5.890625q0 -1.0 -0.203125 -1.484375q-0.1875 -0.5 -0.671875 -0.796875q-0.484375 -0.296875 -1.140625 -0.296875q-1.046875 0 -1.8125 0.671875q-0.75 0.65625 -0.75 2.515625l0 5.28125l-1.640625 0zm16.641342 0l0 -1.21875q-0.90625 1.4375 -2.703125 1.4375q-1.15625 0 -2.125 -0.640625q-0.96875 -0.640625 -1.5 -1.78125q-0.53125 -1.140625 -0.53125 -2.625q0 -1.453125 0.484375 -2.625q0.484375 -1.1875 1.4375 -1.8125q0.96875 -0.625 2.171875 -0.625q0.875 0 1.546875 0.375q0.6875 0.359375 1.109375 0.953125l0 -4.796875l1.640625 0l0 13.359375l-1.53125 0zm-5.171875 -4.828125q0 1.859375 0.78125 2.78125q0.78125 0.921875 1.84375 0.921875q1.078125 0 1.828125 -0.875q0.75 -0.890625 0.75 -2.6875q0 -1.984375 -0.765625 -2.90625q-0.765625 -0.9375 -1.890625 -0.9375q-1.078125 0 -1.8125 0.890625q-0.734375 0.890625 -0.734375 2.8125zm15.906967 1.71875l1.6875 0.203125q-0.40625 1.484375 -1.484375 2.3125q-1.078125 0.8125 -2.765625 0.8125q-2.125 0 -3.375 -1.296875q-1.234375 -1.3125 -1.234375 -3.671875q0 -2.453125 1.25 -3.796875q1.265625 -1.34375 3.265625 -1.34375q1.9375 0 3.15625 1.328125q1.234375 1.3125 1.234375 3.703125q0 0.15625 0 0.4375l-7.21875 0q0.09375 1.59375 0.90625 2.453125q0.8125 0.84375 2.015625 0.84375q0.90625 0 1.546875 -0.46875q0.640625 -0.484375 1.015625 -1.515625zm-5.390625 -2.65625l5.40625 0q-0.109375 -1.21875 -0.625 -1.828125q-0.78125 -0.953125 -2.03125 -0.953125q-1.125 0 -1.90625 0.765625q-0.765625 0.75 -0.84375 2.015625zm9.141342 5.765625l0 -9.671875l1.46875 0l0 1.375q1.0625 -1.59375 3.078125 -1.59375q0.875 0 1.609375 0.3125q0.734375 0.3125 1.09375 0.828125q0.375 0.5 0.515625 1.203125q0.09375 0.453125 0.09375 1.59375l0 5.953125l-1.640625 0l0 -5.890625q0 -1.0 -0.203125 -1.484375q-0.1875 -0.5 -0.671875 -0.796875q-0.484375 -0.296875 -1.140625 -0.296875q-1.046875 0 -1.8125 0.671875q-0.75 0.65625 -0.75 2.515625l0 5.28125l-1.640625 0zm17.000717 -3.109375l1.6875 0.203125q-0.40625 1.484375 -1.484375 2.3125q-1.078125 0.8125 -2.765625 0.8125q-2.125 0 -3.375 -1.296875q-1.234375 -1.3125 -1.234375 -3.671875q0 -2.453125 1.25 -3.796875q1.265625 -1.34375 3.265625 -1.34375q1.9375 0 3.15625 1.328125q1.234375 1.3125 1.234375 3.703125q0 0.15625 0 0.4375l-7.21875 0q0.09375 1.59375 0.90625 2.453125q0.8125 0.84375 2.015625 0.84375q0.90625 0 1.546875 -0.46875q0.640625 -0.484375 1.015625 -1.515625zm-5.390625 -2.65625l5.40625 0q-0.109375 -1.21875 -0.625 -1.828125q-0.78125 -0.953125 -2.03125 -0.953125q-1.125 0 -1.90625 0.765625q-0.765625 0.75 -0.84375 2.015625zm12.719467 4.296875l0.234375 1.453125q-0.6875 0.140625 -1.234375 0.140625q-0.890625 0 -1.390625 -0.28125q-0.484375 -0.28125 -0.6875 -0.734375q-0.203125 -0.46875 -0.203125 -1.9375l0 -5.578125l-1.203125 0l0 -1.265625l1.203125 0l0 -2.390625l1.625 -0.984375l0 3.375l1.65625 0l0 1.265625l-1.65625 0l0 5.671875q0 0.6875 0.078125 0.890625q0.09375 0.203125 0.28125 0.328125q0.203125 0.109375 0.578125 0.109375q0.265625 0 0.71875 -0.0625zm4.292679 1.46875l-3.6875 -9.671875l1.734375 0l2.078125 5.796875q0.328125 0.9375 0.625 1.9375q0.203125 -0.765625 0.609375 -1.828125l2.140625 -5.90625l1.6875 0l-3.65625 9.671875l-1.53125 0zm21.203125 -2.953125q-0.453125 1.515625 -1.546875 2.34375q-1.09375 0.828125 -2.71875 0.828125q-1.15625 0 -2.03125 -0.4375q-0.859375 -0.4375 -1.5625 -1.359375q-0.953125 0.921875 -1.921875 1.359375q-0.96875 0.4375 -2.09375 0.4375q-1.5625 0 -2.4375 -0.796875q-0.859375 -0.8125 -0.859375 -1.96875q0 -0.78125 0.4375 -1.46875q0.453125 -0.6875 1.265625 -1.046875q0.8125 -0.359375 2.578125 -0.578125q1.359375 -0.1875 2.296875 -0.453125q0 -0.234375 0 -0.375q0 -1.140625 -0.484375 -1.59375q-0.46875 -0.46875 -1.65625 -0.46875q-0.796875 0 -1.34375 0.1875q-0.546875 0.1875 -0.8125 0.546875q-0.25 0.34375 -0.421875 1.125l-1.59375 -0.203125q0.25 -1.0625 0.71875 -1.6875q0.484375 -0.625 1.375 -0.96875q0.890625 -0.359375 2.09375 -0.359375q1.515625 0 2.453125 0.453125q0.53125 0.265625 0.890625 0.84375q0.59375 -0.640625 1.328125 -0.96875q0.734375 -0.328125 1.78125 -0.328125q1.484375 0 2.4375 0.71875q0.96875 0.703125 1.40625 1.890625q0.453125 1.171875 0.453125 2.3125q0 0.171875 -0.015625 0.546875l-6.984375 0q0.015625 1.3125 0.3125 1.90625q0.3125 0.59375 0.984375 1.0q0.671875 0.390625 1.46875 0.390625q0.9375 0 1.59375 -0.53125q0.65625 -0.546875 0.890625 -1.515625l1.71875 0.21875zm-6.96875 -2.8125l5.3125 0q-0.125 -1.4375 -0.8125 -2.09375q-0.6875 -0.671875 -1.796875 -0.671875q-1.15625 0 -1.890625 0.734375q-0.734375 0.71875 -0.8125 2.03125zm-1.609375 0.90625q-0.71875 0.3125 -2.921875 0.671875q-1.0 0.15625 -1.40625 0.46875q-0.53125 0.421875 -0.53125 1.109375q0 0.65625 0.484375 1.09375q0.484375 0.4375 1.40625 0.4375q1.046875 0 1.8125 -0.515625q0.78125 -0.515625 1.03125 -1.296875q0.125 -0.46875 0.125 -1.96875zm10.588394 4.859375l0 -9.671875l1.46875 0l0 1.46875q0.5625 -1.03125 1.03125 -1.359375q0.484375 -0.328125 1.0625 -0.328125q0.828125 0 1.6875 0.53125l-0.5625 1.515625q-0.609375 -0.359375 -1.203125 -0.359375q-0.546875 0 -0.96875 0.328125q-0.421875 0.328125 -0.609375 0.890625q-0.28125 0.875 -0.28125 1.921875l0 5.0625l-1.625 0zm6.228302 0l0 -13.359375l1.640625 0l0 7.625l3.890625 -3.9375l2.109375 0l-3.6875 3.59375l4.0625 6.078125l-2.015625 0l-3.203125 -4.953125l-1.15625 1.125l0 3.828125l-1.640625 0z" fill-rule="nonzero"/><path fill="#d0e0e3" d="m172.13387 380.77228l0 0c0 -17.29657 14.021637 -31.318207 31.318207 -31.318207l618.15094 0c8.306152 0 16.272034 3.299591 22.145325 9.172882c5.873291 5.8733215 9.172913 13.839233 9.172913 22.145325l0 125.269104c0 17.29657 -14.0216675 31.318176 -31.318237 31.318176l-618.15094 0c-17.29657 0 -31.318207 -14.021606 -31.318207 -31.318176z" fill-rule="evenodd"/><path stroke="#000000" stroke-width="1.0" stroke-linejoin="round" stroke-linecap="butt" d="m172.13387 380.77228l0 0c0 -17.29657 14.021637 -31.318207 31.318207 -31.318207l618.15094 0c8.306152 0 16.272034 3.299591 22.145325 9.172882c5.873291 5.8733215 9.172913 13.839233 9.172913 22.145325l0 125.269104c0 17.29657 -14.0216675 31.318176 -31.318237 31.318176l-618.15094 0c-17.29657 0 -31.318207 -14.021606 -31.318207 -31.318176z" fill-rule="evenodd"/><path fill="#000000" fill-opacity="0.0" d="m175.29659 349.45407l364.44098 0l0 42.015747l-364.44098 0z" fill-rule="evenodd"/><path fill="#000000" d="m189.54659 376.37405l-5.171875 -13.359375l1.921875 0l3.46875 9.703125q0.421875 1.171875 0.703125 2.1875q0.3125 -1.09375 0.71875 -2.1875l3.609375 -9.703125l1.796875 0l-5.234375 13.359375l-1.8125 0zm8.584198 0l0 -13.359375l2.65625 0l3.15625 9.453125q0.4375 1.328125 0.640625 1.984375q0.234375 -0.734375 0.703125 -2.140625l3.203125 -9.296875l2.375 0l0 13.359375l-1.703125 0l0 -11.171875l-3.875 11.171875l-1.59375 0l-3.859375 -11.375l0 11.375l-1.703125 0z" fill-rule="nonzero"/><path fill="#ead1dc" d="m251.85301 362.11023l566.2677 0l0 25.952759l-566.2677 0z" fill-rule="evenodd"/><path stroke="#000000" stroke-width="1.0" stroke-linejoin="round" stroke-linecap="butt" d="m251.85301 362.11023l566.2677 0l0 25.952759l-566.2677 0z" fill-rule="evenodd"/><path fill="#000000" fill-opacity="0.0" d="m261.96326 355.70078l560.56696 0l0 38.771667l-560.56696 0z" fill-rule="evenodd"/><path fill="#000000" d="m272.22888 380.0608l0 -11.453125l5.078125 0q1.53125 0 2.328125 0.3125q0.796875 0.296875 1.265625 1.078125q0.484375 0.78125 0.484375 1.734375q0 1.21875 -0.796875 2.0625q-0.78125 0.828125 -2.4375 1.046875q0.609375 0.296875 0.921875 0.578125q0.65625 0.609375 1.25 1.515625l2.0 3.125l-1.90625 0l-1.515625 -2.390625q-0.671875 -1.03125 -1.109375 -1.578125q-0.421875 -0.546875 -0.765625 -0.765625q-0.328125 -0.21875 -0.6875 -0.296875q-0.25 -0.0625 -0.84375 -0.0625l-1.75 0l0 5.09375l-1.515625 0zm1.515625 -6.40625l3.25 0q1.046875 0 1.625 -0.203125q0.59375 -0.21875 0.890625 -0.6875q0.3125 -0.484375 0.3125 -1.03125q0 -0.8125 -0.59375 -1.328125q-0.59375 -0.53125 -1.859375 -0.53125l-3.625 0l0 3.78125zm15.5078125 3.734375l1.453125 0.171875q-0.34375 1.28125 -1.28125 1.984375q-0.921875 0.703125 -2.359375 0.703125q-1.828125 0 -2.890625 -1.125q-1.0625 -1.125 -1.0625 -3.140625q0 -2.09375 1.078125 -3.25q1.078125 -1.15625 2.796875 -1.15625q1.65625 0 2.703125 1.140625q1.0625 1.125 1.0625 3.171875q0 0.125 0 0.375l-6.1875 0q0.078125 1.375 0.765625 2.109375q0.703125 0.71875 1.734375 0.71875q0.78125 0 1.328125 -0.40625q0.546875 -0.40625 0.859375 -1.296875zm-4.609375 -2.28125l4.625 0q-0.09375 -1.046875 -0.53125 -1.5625q-0.671875 -0.8125 -1.734375 -0.8125q-0.96875 0 -1.640625 0.65625q-0.65625 0.640625 -0.71875 1.71875zm10.1328125 4.953125l-3.15625 -8.296875l1.484375 0l1.78125 4.96875q0.296875 0.796875 0.53125 1.671875q0.1875 -0.65625 0.53125 -1.578125l1.84375 -5.0625l1.4375 0l-3.140625 8.296875l-1.3125 0zm11.375 -2.671875l1.453125 0.171875q-0.34375 1.28125 -1.28125 1.984375q-0.921875 0.703125 -2.359375 0.703125q-1.828125 0 -2.890625 -1.125q-1.0625 -1.125 -1.0625 -3.140625q0 -2.09375 1.078125 -3.25q1.078125 -1.15625 2.796875 -1.15625q1.65625 0 2.703125 1.140625q1.0625 1.125 1.0625 3.171875q0 0.125 0 0.375l-6.1875 0q0.078125 1.375 0.765625 2.109375q0.703125 0.71875 1.734375 0.71875q0.78125 0 1.328125 -0.40625q0.546875 -0.40625 0.859375 -1.296875zm-4.609375 -2.28125l4.625 0q-0.09375 -1.046875 -0.53125 -1.5625q-0.671875 -0.8125 -1.734375 -0.8125q-0.96875 0 -1.640625 0.65625q-0.65625 0.640625 -0.71875 1.71875zm7.8203125 4.953125l0 -8.296875l1.265625 0l0 1.25q0.484375 -0.875 0.890625 -1.15625q0.40625 -0.28125 0.90625 -0.28125q0.703125 0 1.4375 0.453125l-0.484375 1.296875q-0.515625 -0.296875 -1.03125 -0.296875q-0.453125 0 -0.828125 0.28125q-0.359375 0.265625 -0.515625 0.765625q-0.234375 0.75 -0.234375 1.640625l0 4.34375l-1.40625 0zm4.78125 -2.484375l1.390625 -0.21875q0.109375 0.84375 0.640625 1.296875q0.546875 0.4375 1.5 0.4375q0.96875 0 1.4375 -0.390625q0.46875 -0.40625 0.46875 -0.9375q0 -0.46875 -0.40625 -0.75q-0.296875 -0.1875 -1.4375 -0.46875q-1.546875 -0.390625 -2.15625 -0.671875q-0.59375 -0.296875 -0.90625 -0.796875q-0.296875 -0.5 -0.296875 -1.109375q0 -0.5625 0.25 -1.03125q0.25 -0.46875 0.6875 -0.78125q0.328125 -0.25 0.890625 -0.40625q0.578125 -0.171875 1.21875 -0.171875q0.984375 0 1.71875 0.28125q0.734375 0.28125 1.078125 0.765625q0.359375 0.46875 0.5 1.28125l-1.375 0.1875q-0.09375 -0.640625 -0.546875 -1.0q-0.453125 -0.359375 -1.265625 -0.359375q-0.96875 0 -1.390625 0.328125q-0.40625 0.3125 -0.40625 0.734375q0 0.28125 0.171875 0.5q0.171875 0.21875 0.53125 0.375q0.21875 0.078125 1.25 0.359375q1.484375 0.390625 2.078125 0.65625q0.59375 0.25 0.921875 0.734375q0.34375 0.484375 0.34375 1.203125q0 0.703125 -0.421875 1.328125q-0.40625 0.609375 -1.1875 0.953125q-0.765625 0.34375 -1.734375 0.34375q-1.625 0 -2.46875 -0.671875q-0.84375 -0.671875 -1.078125 -2.0zm14.234375 -0.1875l1.453125 0.171875q-0.34375 1.28125 -1.28125 1.984375q-0.921875 0.703125 -2.359375 0.703125q-1.828125 0 -2.890625 -1.125q-1.0625 -1.125 -1.0625 -3.140625q0 -2.09375 1.078125 -3.25q1.078125 -1.15625 2.796875 -1.15625q1.65625 0 2.703125 1.140625q1.0625 1.125 1.0625 3.171875q0 0.125 0 0.375l-6.1875 0q0.078125 1.375 0.765625 2.109375q0.703125 0.71875 1.734375 0.71875q0.78125 0 1.328125 -0.40625q0.546875 -0.40625 0.859375 -1.296875zm-4.609375 -2.28125l4.625 0q-0.09375 -1.046875 -0.53125 -1.5625q-0.671875 -0.8125 -1.734375 -0.8125q-0.96875 0 -1.640625 0.65625q-0.65625 0.640625 -0.71875 1.71875zm12.28125 8.140625l0 -11.484375l1.28125 0l0 1.078125q0.453125 -0.640625 1.015625 -0.953125q0.578125 -0.3125 1.390625 -0.3125q1.0625 0 1.875 0.546875q0.8125 0.546875 1.21875 1.546875q0.421875 0.984375 0.421875 2.171875q0 1.28125 -0.46875 2.296875q-0.453125 1.015625 -1.328125 1.5625q-0.859375 0.546875 -1.828125 0.546875q-0.703125 0 -1.265625 -0.296875q-0.546875 -0.296875 -0.90625 -0.75l0 4.046875l-1.40625 0zm1.265625 -7.296875q0 1.609375 0.640625 2.375q0.65625 0.765625 1.578125 0.765625q0.9375 0 1.609375 -0.796875q0.671875 -0.796875 0.671875 -2.453125q0 -1.59375 -0.65625 -2.375q-0.65625 -0.796875 -1.5625 -0.796875q-0.890625 0 -1.59375 0.84375q-0.6875 0.84375 -0.6875 2.4375zm7.6171875 4.109375l0 -8.296875l1.265625 0l0 1.25q0.484375 -0.875 0.890625 -1.15625q0.40625 -0.28125 0.90625 -0.28125q0.703125 0 1.4375 0.453125l-0.484375 1.296875q-0.515625 -0.296875 -1.03125 -0.296875q-0.453125 0 -0.828125 0.28125q-0.359375 0.265625 -0.515625 0.765625q-0.234375 0.75 -0.234375 1.640625l0 4.34375l-1.40625 0zm4.8125 -4.15625q0 -2.296875 1.28125 -3.40625q1.078125 -0.921875 2.609375 -0.921875q1.71875 0 2.796875 1.125q1.09375 1.109375 1.09375 3.09375q0 1.59375 -0.484375 2.515625q-0.484375 0.921875 -1.40625 1.4375q-0.90625 0.5 -2.0 0.5q-1.734375 0 -2.8125 -1.109375q-1.078125 -1.125 -1.078125 -3.234375zm1.453125 0q0 1.59375 0.6875 2.390625q0.703125 0.796875 1.75 0.796875q1.046875 0 1.734375 -0.796875q0.703125 -0.796875 0.703125 -2.4375q0 -1.53125 -0.703125 -2.328125q-0.6875 -0.796875 -1.734375 -0.796875q-1.046875 0 -1.75 0.796875q-0.6875 0.78125 -0.6875 2.375zm7.0390625 4.15625l3.03125 -4.3125l-2.8125 -3.984375l1.765625 0l1.265625 1.9375q0.359375 0.5625 0.578125 0.9375q0.34375 -0.515625 0.640625 -0.921875l1.390625 -1.953125l1.6875 0l-2.875 3.90625l3.09375 4.390625l-1.734375 0l-1.703125 -2.578125l-0.453125 -0.703125l-2.171875 3.28125l-1.703125 0zm8.875 3.203125l-0.15625 -1.328125q0.453125 0.125 0.796875 0.125q0.46875 0 0.75 -0.15625q0.28125 -0.15625 0.46875 -0.4375q0.125 -0.203125 0.421875 -1.046875q0.046875 -0.109375 0.125 -0.34375l-3.140625 -8.3125l1.515625 0l1.71875 4.796875q0.34375 0.921875 0.609375 1.921875q0.234375 -0.96875 0.578125 -1.890625l1.765625 -4.828125l1.40625 0l-3.15625 8.4375q-0.5 1.375 -0.78125 1.890625q-0.375 0.6875 -0.859375 1.015625q-0.484375 0.328125 -1.15625 0.328125q-0.40625 0 -0.90625 -0.171875z" fill-rule="nonzero"/><path fill="#ead1dc" d="m648.51447 395.00787l64.5354 0l0 127.18109l-64.5354 0z" fill-rule="evenodd"/><path stroke="#000000" stroke-width="1.0" stroke-linejoin="round" stroke-linecap="butt" d="m648.51447 395.00787l64.5354 0l0 127.18109l-64.5354 0z" fill-rule="evenodd"/><path fill="#000000" fill-opacity="0.0" d="m659.7008 437.59055l154.45667 0l0 40.409454l-154.45667 0z" fill-rule="evenodd"/><path fill="#000000" d="m669.96643 463.23056l0 -12.40625l1.640625 0l0 6.15625l6.15625 -6.15625l2.234375 0l-5.203125 5.03125l5.4375 7.375l-2.171875 0l-4.421875 -6.28125l-2.03125 1.984375l0 4.296875l-1.640625 0zm18.073303 -8.453125l0.828125 -1.078125l0.8125 0.59375l-0.90625 1.15625q0.53125 0.734375 0.734375 1.328125q0.265625 0.84375 0.265625 1.96875q0 2.53125 -1.4375 3.734375q-1.15625 0.953125 -2.796875 0.953125q-1.34375 0 -2.375 -0.671875l-0.890625 1.140625l-0.78125 -0.609375l0.90625 -1.1875q-0.5 -0.578125 -0.703125 -1.15625q-0.34375 -0.921875 -0.34375 -2.078125q0 -2.546875 1.234375 -3.6875q1.25 -1.140625 2.921875 -1.140625q0.703125 0 1.28125 0.1875q0.578125 0.171875 1.25 0.546875zm-0.859375 1.125q-0.765625 -0.59375 -1.609375 -0.59375q-1.125 0 -1.890625 0.859375q-0.765625 0.859375 -0.765625 2.5625q0 1.28125 0.4375 2.125l3.828125 -4.953125zm0.640625 0.8125l-3.8125 4.9375q0.671875 0.53125 1.5 0.53125q1.171875 0 1.9375 -0.859375q0.765625 -0.875 0.765625 -2.59375q0 -0.640625 -0.09375 -1.125q-0.078125 -0.359375 -0.296875 -0.890625z" fill-rule="nonzero"/><path fill="#ead1dc" d="m483.0971 395.00787l118.299194 0l0 64.53543l-118.299194 0z" fill-rule="evenodd"/><path stroke="#000000" stroke-width="1.0" stroke-linejoin="round" stroke-linecap="butt" d="m483.0971 395.00787l118.299194 0l0 64.53543l-118.299194 0z" fill-rule="evenodd"/><path fill="#ead1dc" d="m483.0971 486.31497l118.299194 0l0 35.873993l-118.299194 0z" fill-rule="evenodd"/><path stroke="#000000" stroke-width="1.0" stroke-linejoin="round" stroke-linecap="butt" d="m483.0971 486.31497l118.299194 0l0 35.873993l-118.299194 0z" fill-rule="evenodd"/><path fill="#000000" fill-opacity="0.0" d="m542.2467 459.5433l-0.3149414 26.771667" fill-rule="evenodd"/><path stroke="#000000" stroke-width="1.0" stroke-linejoin="round" stroke-linecap="butt" d="m542.2467 459.5433l-0.24438477 20.772064" fill-rule="evenodd"/><path fill="#000000" stroke="#000000" stroke-width="1.0" stroke-linecap="butt" d="m540.3507 480.29596l1.5982666 4.55719l1.704956 -4.518341z" fill-rule="evenodd"/><path fill="#000000" fill-opacity="0.0" d="m518.2651 406.26773l50.299255 0l0 40.409424l-50.299255 0z" fill-rule="evenodd"/><path fill="#000000" d="m528.5463 431.9077l0 -12.40625l2.46875 0l2.9375 8.78125q0.40625 1.234375 0.59375 1.84375q0.21875 -0.6875 0.65625 -2.0l2.984375 -8.625l2.203125 0l0 12.40625l-1.578125 0l0 -10.375l-3.609375 10.375l-1.484375 0l-3.578125 -10.5625l0 10.5625l-1.59375 0zm13.997009 -6.046875q0 -3.078125 1.65625 -4.828125q1.65625 -1.75 4.28125 -1.75q1.71875 0 3.09375 0.828125q1.375 0.8125 2.09375 2.28125q0.734375 1.46875 0.734375 3.328125q0 1.890625 -0.765625 3.390625q-0.765625 1.484375 -2.15625 2.25q-1.390625 0.765625 -3.015625 0.765625q-1.75 0 -3.125 -0.84375q-1.375 -0.859375 -2.09375 -2.3125q-0.703125 -1.46875 -0.703125 -3.109375zm1.6875 0.03125q0 2.234375 1.203125 3.53125q1.203125 1.296875 3.03125 1.296875q1.84375 0 3.03125 -1.296875q1.203125 -1.3125 1.203125 -3.703125q0 -1.515625 -0.515625 -2.640625q-0.5 -1.140625 -1.484375 -1.75q-0.984375 -0.625 -2.21875 -0.625q-1.734375 0 -3.0 1.203125q-1.25 1.1875 -1.25 3.984375z" fill-rule="nonzero"/><path fill="#000000" fill-opacity="0.0" d="m520.84515 483.24408l56.850403 0l0 40.409485l-56.850403 0z" fill-rule="evenodd"/><path fill="#000000" d="m531.1889 508.8841l0 -12.40625l4.265625 0q1.453125 0 2.203125 0.1875q1.078125 0.234375 1.828125 0.875q0.984375 0.828125 1.46875 2.125q0.484375 1.296875 0.484375 2.953125q0 1.40625 -0.328125 2.5q-0.328125 1.09375 -0.84375 1.8125q-0.515625 0.703125 -1.140625 1.125q-0.609375 0.40625 -1.484375 0.625q-0.859375 0.203125 -1.984375 0.203125l-4.46875 0zm1.640625 -1.46875l2.640625 0q1.234375 0 1.921875 -0.21875q0.703125 -0.234375 1.125 -0.640625q0.578125 -0.59375 0.90625 -1.578125q0.328125 -0.984375 0.328125 -2.390625q0 -1.9375 -0.640625 -2.984375q-0.640625 -1.046875 -1.5625 -1.40625q-0.65625 -0.25 -2.125 -0.25l-2.59375 0l0 9.46875zm10.795044 1.46875l0 -12.40625l4.65625 0q1.421875 0 2.28125 0.375q0.859375 0.375 1.34375 1.171875q0.484375 0.78125 0.484375 1.625q0 0.796875 -0.4375 1.5q-0.421875 0.703125 -1.296875 1.140625q1.125 0.328125 1.734375 1.125q0.609375 0.796875 0.609375 1.875q0 0.875 -0.375 1.625q-0.359375 0.734375 -0.90625 1.140625q-0.546875 0.40625 -1.359375 0.625q-0.8125 0.203125 -2.0 0.203125l-4.734375 0zm1.640625 -7.1875l2.6875 0q1.09375 0 1.5625 -0.140625q0.625 -0.1875 0.9375 -0.625q0.328125 -0.4375 0.328125 -1.078125q0 -0.625 -0.296875 -1.09375q-0.296875 -0.46875 -0.859375 -0.640625q-0.546875 -0.171875 -1.875 -0.171875l-2.484375 0l0 3.75zm0 5.71875l3.09375 0q0.796875 0 1.109375 -0.046875q0.578125 -0.109375 0.953125 -0.34375q0.375 -0.234375 0.625 -0.6875q0.25 -0.453125 0.25 -1.046875q0 -0.703125 -0.359375 -1.203125q-0.359375 -0.515625 -0.984375 -0.71875q-0.625 -0.21875 -1.8125 -0.21875l-2.875 0l0 4.265625z" fill-rule="nonzero"/><path fill="#000000" fill-opacity="0.0" d="m601.3963 427.2756l47.118164 -0.34646606" fill-rule="evenodd"/><path stroke="#000000" stroke-width="1.0" stroke-linejoin="round" stroke-linecap="butt" d="m601.3963 427.2756l41.118286 -0.30233765" fill-rule="evenodd"/><path fill="#000000" stroke="#000000" stroke-width="1.0" stroke-linecap="butt" d="m642.52673 428.62494l4.525818 -1.6850586l-4.55011 -1.6183167z" fill-rule="evenodd"/><path fill="#000000" fill-opacity="0.0" d="m542.3018 394.937l0 -6.551178" fill-rule="evenodd"/><path stroke="#000000" stroke-width="1.0" stroke-linejoin="round" stroke-linecap="butt" d="m542.3018 394.937l0 -6.551178" fill-rule="evenodd"/><path fill="#ead1dc" d="m324.9685 395.46457l118.299225 0l0 64.53543l-118.299225 0z" fill-rule="evenodd"/><path stroke="#000000" stroke-width="1.0" stroke-linejoin="round" stroke-linecap="butt" d="m324.9685 395.46457l118.299225 0l0 64.53543l-118.299225 0z" fill-rule="evenodd"/><path fill="#000000" fill-opacity="0.0" d="m324.9685 406.7244l124.09448 0l0 40.409454l-124.09448 0z" fill-rule="evenodd"/><path fill="#000000" d="m335.31226 432.3644l0 -12.40625l4.671875 0q1.234375 0 1.890625 0.125q0.90625 0.140625 1.515625 0.578125q0.625 0.421875 1.0 1.203125q0.390625 0.765625 0.390625 1.6875q0 1.578125 -1.015625 2.671875q-1.0 1.09375 -3.640625 1.09375l-3.171875 0l0 5.046875l-1.640625 0zm1.640625 -6.5l3.203125 0q1.59375 0 2.25 -0.59375q0.671875 -0.59375 0.671875 -1.671875q0 -0.78125 -0.390625 -1.328125q-0.390625 -0.5625 -1.03125 -0.734375q-0.421875 -0.109375 -1.53125 -0.109375l-3.171875 0l0 4.4375zm9.698334 6.5l0 -8.984375l1.375 0l0 1.359375q0.515625 -0.953125 0.953125 -1.25q0.453125 -0.3125 0.984375 -0.3125q0.78125 0 1.5625 0.484375l-0.515625 1.421875q-0.5625 -0.328125 -1.125 -0.328125q-0.5 0 -0.890625 0.296875q-0.390625 0.296875 -0.5625 0.828125q-0.265625 0.8125 -0.265625 1.78125l0 4.703125l-1.515625 0zm5.2235413 -4.5q0 -2.484375 1.390625 -3.6875q1.15625 -1.0 2.8125 -1.0q1.859375 0 3.03125 1.21875q1.1875 1.203125 1.1875 3.34375q0 1.734375 -0.53125 2.734375q-0.515625 1.0 -1.515625 1.546875q-0.984375 0.546875 -2.171875 0.546875q-1.875 0 -3.046875 -1.203125q-1.15625 -1.21875 -1.15625 -3.5zm1.5625 0q0 1.734375 0.75 2.59375q0.75 0.859375 1.890625 0.859375q1.140625 0 1.890625 -0.859375q0.75 -0.875 0.75 -2.640625q0 -1.65625 -0.75 -2.515625q-0.75 -0.859375 -1.890625 -0.859375q-1.140625 0 -1.890625 0.859375q-0.75 0.84375 -0.75 2.5625zm8.637085 4.5l0 -8.984375l1.359375 0l0 1.265625q0.421875 -0.671875 1.125 -1.0625q0.703125 -0.40625 1.609375 -0.40625q1.0 0 1.625 0.421875q0.640625 0.40625 0.90625 1.15625q1.0625 -1.578125 2.78125 -1.578125q1.328125 0 2.046875 0.75q0.71875 0.734375 0.71875 2.265625l0 6.171875l-1.515625 0l0 -5.65625q0 -0.921875 -0.15625 -1.3125q-0.140625 -0.40625 -0.53125 -0.65625q-0.375 -0.25 -0.90625 -0.25q-0.953125 0 -1.578125 0.640625q-0.625 0.625 -0.625 2.015625l0 5.21875l-1.515625 0l0 -5.84375q0 -1.015625 -0.375 -1.515625q-0.375 -0.515625 -1.21875 -0.515625q-0.640625 0 -1.1875 0.34375q-0.546875 0.34375 -0.796875 1.0q-0.234375 0.640625 -0.234375 1.875l0 4.65625l-1.53125 0zm20.590698 -2.890625l1.5625 0.1875q-0.359375 1.390625 -1.375 2.15625q-1.0 0.75 -2.5625 0.75q-1.984375 0 -3.140625 -1.203125q-1.140625 -1.21875 -1.140625 -3.421875q0 -2.265625 1.15625 -3.515625q1.171875 -1.25 3.03125 -1.25q1.8125 0 2.953125 1.234375q1.140625 1.21875 1.140625 3.4375q0 0.140625 -0.015625 0.40625l-6.703125 0q0.09375 1.484375 0.84375 2.28125q0.75 0.78125 1.875 0.78125q0.84375 0 1.4375 -0.4375q0.59375 -0.4375 0.9375 -1.40625zm-5.0 -2.46875l5.015625 0q-0.109375 -1.125 -0.578125 -1.703125q-0.734375 -0.875 -1.890625 -0.875q-1.046875 0 -1.765625 0.703125q-0.703125 0.703125 -0.78125 1.875zm11.80896 4.0l0.21875 1.34375q-0.640625 0.140625 -1.15625 0.140625q-0.828125 0 -1.28125 -0.265625q-0.453125 -0.265625 -0.640625 -0.6875q-0.1875 -0.4375 -0.1875 -1.796875l0 -5.171875l-1.125 0l0 -1.1875l1.125 0l0 -2.21875l1.515625 -0.921875l0 3.140625l1.53125 0l0 1.1875l-1.53125 0l0 5.25q0 0.65625 0.078125 0.84375q0.078125 0.1875 0.25 0.296875q0.1875 0.109375 0.53125 0.109375q0.25 0 0.671875 -0.0625zm1.486206 1.359375l0 -12.40625l1.53125 0l0 4.453125q1.0625 -1.234375 2.6875 -1.234375q1.0 0 1.734375 0.390625q0.734375 0.390625 1.046875 1.09375q0.328125 0.6875 0.328125 2.015625l0 5.6875l-1.53125 0l0 -5.6875q0 -1.15625 -0.5 -1.671875q-0.484375 -0.515625 -1.390625 -0.515625q-0.6875 0 -1.28125 0.359375q-0.59375 0.34375 -0.84375 0.953125q-0.25 0.59375 -0.25 1.640625l0 4.921875l-1.53125 0zm15.793335 -2.890625l1.5625 0.1875q-0.359375 1.390625 -1.375 2.15625q-1.0 0.75 -2.5625 0.75q-1.984375 0 -3.140625 -1.203125q-1.140625 -1.21875 -1.140625 -3.421875q0 -2.265625 1.15625 -3.515625q1.171875 -1.25 3.03125 -1.25q1.8125 0 2.953125 1.234375q1.140625 1.21875 1.140625 3.4375q0 0.140625 -0.015625 0.40625l-6.703125 0q0.09375 1.484375 0.84375 2.28125q0.75 0.78125 1.875 0.78125q0.84375 0 1.4375 -0.4375q0.59375 -0.4375 0.9375 -1.40625zm-5.0 -2.46875l5.015625 0q-0.109375 -1.125 -0.578125 -1.703125q-0.734375 -0.875 -1.890625 -0.875q-1.046875 0 -1.765625 0.703125q-0.703125 0.703125 -0.78125 1.875zm14.37146 5.359375l0 -1.3125q-1.046875 1.515625 -2.84375 1.515625q-0.796875 0 -1.5 -0.296875q-0.6875 -0.3125 -1.015625 -0.765625q-0.328125 -0.46875 -0.46875 -1.140625q-0.09375 -0.4375 -0.09375 -1.421875l0 -5.5625l1.515625 0l0 4.984375q0 1.1875 0.09375 1.609375q0.15625 0.59375 0.609375 0.9375q0.46875 0.34375 1.15625 0.34375q0.6875 0 1.28125 -0.34375q0.609375 -0.359375 0.859375 -0.953125q0.25 -0.609375 0.25 -1.765625l0 -4.8125l1.515625 0l0 8.984375l-1.359375 0zm3.137085 -2.6875l1.515625 -0.234375q0.125 0.90625 0.703125 1.390625q0.578125 0.484375 1.609375 0.484375q1.0625 0 1.5625 -0.421875q0.515625 -0.4375 0.515625 -1.015625q0 -0.515625 -0.453125 -0.8125q-0.3125 -0.203125 -1.5625 -0.515625q-1.671875 -0.421875 -2.328125 -0.71875q-0.640625 -0.3125 -0.984375 -0.859375q-0.328125 -0.546875 -0.328125 -1.203125q0 -0.609375 0.28125 -1.109375q0.28125 -0.515625 0.75 -0.859375q0.359375 -0.265625 0.96875 -0.4375q0.609375 -0.1875 1.3125 -0.1875q1.0625 0 1.859375 0.3125q0.796875 0.296875 1.171875 0.828125q0.390625 0.515625 0.53125 1.375l-1.484375 0.203125q-0.109375 -0.6875 -0.59375 -1.078125q-0.484375 -0.390625 -1.375 -0.390625q-1.046875 0 -1.5 0.34375q-0.4375 0.34375 -0.4375 0.8125q0 0.296875 0.171875 0.53125q0.1875 0.25 0.59375 0.40625q0.21875 0.09375 1.34375 0.390625q1.609375 0.4375 2.25 0.71875q0.640625 0.265625 1.0 0.796875q0.375 0.515625 0.375 1.296875q0 0.765625 -0.453125 1.4375q-0.4375 0.671875 -1.28125 1.046875q-0.828125 0.359375 -1.890625 0.359375q-1.75 0 -2.671875 -0.71875q-0.921875 -0.734375 -1.171875 -2.171875z" fill-rule="nonzero"/><path fill="#000000" fill-opacity="0.0" d="m442.4987 459.3701l40.59842 44.881897" fill-rule="evenodd"/><path stroke="#000000" stroke-width="1.0" stroke-linejoin="round" stroke-linecap="butt" d="m442.4987 459.3701l36.573456 40.43225" fill-rule="evenodd"/><path fill="#000000" stroke="#000000" stroke-width="1.0" stroke-linecap="butt" d="m477.84717 500.91034l4.2692566 2.2574768l-1.8193665 -4.4735413z" fill-rule="evenodd"/><path fill="#000000" fill-opacity="0.0" d="m443.53806 426.92914l39.55905 0.34646606" fill-rule="evenodd"/><path stroke="#000000" stroke-width="1.0" stroke-linejoin="round" stroke-linecap="butt" d="m443.53806 426.92914l33.559296 0.2939148" fill-rule="evenodd"/><path fill="#000000" stroke="#000000" stroke-width="1.0" stroke-linecap="butt" d="m477.0829 428.87473l4.552368 -1.6119385l-4.5234375 -1.6914062z" fill-rule="evenodd"/><path fill="#ead1dc" d="m729.3149 421.1468l94.644165 0l0 75.414c-47.31952 0 -47.31952 29.015503 -94.644165 14.507751zm7.7975464 0l0 -9.776978l93.99774 0l0 75.887085c-3.572998 0 -7.151123 0.52563477 -7.151123 0.52563477l0 -66.63574zm7.3292236 -9.776978l0 -9.540405l94.81213 0l0 75.65054c-4.0717773 0 -8.143616 0.39422607 -8.143616 0.39422607l0 -66.504364z" fill-rule="evenodd"/><path fill="#000000" fill-opacity="0.0" d="m729.3149 421.1468l94.644165 0l0 75.414c-47.31952 0 -47.31952 29.015503 -94.644165 14.507751zm7.7975464 0l0 -9.776978l93.99774 0l0 75.887085c-3.572998 0 -7.151123 0.52563477 -7.151123 0.52563477m-79.517395 -76.41272l0 -9.540405l94.81213 0l0 75.65054c-4.0717773 0 -8.143616 0.39422607 -8.143616 0.39422607" fill-rule="evenodd"/><path fill="#000000" fill-opacity="0.0" d="m729.3149 511.06854c47.324646 14.507751 47.324646 -14.507751 94.644165 -14.507751l0 -8.778259c0 0 3.578125 -0.52563477 7.151123 -0.52563477l0 -9.382721c0 0 4.0718384 -0.39422607 8.143616 -0.39422607l0 -75.65054l-94.81213 0l0 9.540405l-7.3292236 0l0 9.776978l-7.7975464 0z" fill-rule="evenodd"/><path stroke="#000000" stroke-width="1.0" stroke-linejoin="round" stroke-linecap="butt" d="m729.3149 421.1468l94.644165 0l0 75.414c-47.31952 0 -47.31952 29.015503 -94.644165 14.507751zm7.7975464 0l0 -9.776978l93.99774 0l0 75.887085c-3.572998 0 -7.151123 0.52563477 -7.151123 0.52563477m-79.517395 -76.41272l0 -9.540405l94.81213 0l0 75.65054c-4.0717773 0 -8.143616 0.39422607 -8.143616 0.39422607" fill-rule="evenodd"/><path fill="#000000" fill-opacity="0.0" d="m721.30444 417.5853l159.1181 0l0 38.771667l-159.1181 0z" fill-rule="evenodd"/><path fill="#000000" d="m731.80444 441.9453l0 -11.453125l1.515625 0l0 11.453125l-1.515625 0zm4.0078125 0l0 -8.296875l1.265625 0l0 1.171875q0.90625 -1.359375 2.640625 -1.359375q0.75 0 1.375 0.265625q0.625 0.265625 0.9375 0.703125q0.3125 0.4375 0.4375 1.046875q0.078125 0.390625 0.078125 1.359375l0 5.109375l-1.40625 0l0 -5.046875q0 -0.859375 -0.171875 -1.28125q-0.15625 -0.4375 -0.578125 -0.6875q-0.40625 -0.25 -0.96875 -0.25q-0.90625 0 -1.5625 0.578125q-0.640625 0.5625 -0.640625 2.15625l0 4.53125l-1.40625 0zm11.9609375 -1.265625l0.203125 1.25q-0.59375 0.125 -1.0625 0.125q-0.765625 0 -1.1875 -0.234375q-0.421875 -0.25 -0.59375 -0.640625q-0.171875 -0.40625 -0.171875 -1.671875l0 -4.765625l-1.03125 0l0 -1.09375l1.03125 0l0 -2.0625l1.40625 -0.84375l0 2.90625l1.40625 0l0 1.09375l-1.40625 0l0 4.84375q0 0.609375 0.0625 0.78125q0.078125 0.171875 0.25 0.28125q0.171875 0.09375 0.484375 0.09375q0.234375 0 0.609375 -0.0625zm7.0546875 -1.40625l1.453125 0.171875q-0.34375 1.28125 -1.28125 1.984375q-0.921875 0.703125 -2.359375 0.703125q-1.828125 0 -2.890625 -1.125q-1.0625 -1.125 -1.0625 -3.140625q0 -2.09375 1.078125 -3.25q1.078125 -1.15625 2.796875 -1.15625q1.65625 0 2.703125 1.140625q1.0625 1.125 1.0625 3.171875q0 0.125 0 0.375l-6.1875 0q0.078125 1.375 0.765625 2.109375q0.703125 0.71875 1.734375 0.71875q0.78125 0 1.328125 -0.40625q0.546875 -0.40625 0.859375 -1.296875zm-4.609375 -2.28125l4.625 0q-0.09375 -1.046875 -0.53125 -1.5625q-0.671875 -0.8125 -1.734375 -0.8125q-0.96875 0 -1.640625 0.65625q-0.65625 0.640625 -0.71875 1.71875zm7.5703125 5.640625l1.375 0.203125q0.078125 0.640625 0.46875 0.921875q0.53125 0.390625 1.4375 0.390625q0.96875 0 1.5 -0.390625q0.53125 -0.390625 0.71875 -1.09375q0.109375 -0.421875 0.109375 -1.8125q-0.921875 1.09375 -2.296875 1.09375q-1.71875 0 -2.65625 -1.234375q-0.9375 -1.234375 -0.9375 -2.96875q0 -1.1875 0.421875 -2.1875q0.4375 -1.0 1.25 -1.546875q0.828125 -0.546875 1.921875 -0.546875q1.46875 0 2.421875 1.1875l0 -1.0l1.296875 0l0 7.171875q0 1.9375 -0.390625 2.75q-0.390625 0.8125 -1.25 1.28125q-0.859375 0.46875 -2.109375 0.46875q-1.484375 0 -2.40625 -0.671875q-0.90625 -0.671875 -0.875 -2.015625zm1.171875 -4.984375q0 1.625 0.640625 2.375q0.65625 0.75 1.625 0.75q0.96875 0 1.625 -0.734375q0.65625 -0.75 0.65625 -2.34375q0 -1.53125 -0.671875 -2.296875q-0.671875 -0.78125 -1.625 -0.78125q-0.9375 0 -1.59375 0.765625q-0.65625 0.765625 -0.65625 2.265625zm7.9765625 4.296875l0 -8.296875l1.265625 0l0 1.25q0.484375 -0.875 0.890625 -1.15625q0.40625 -0.28125 0.90625 -0.28125q0.703125 0 1.4375 0.453125l-0.484375 1.296875q-0.515625 -0.296875 -1.03125 -0.296875q-0.453125 0 -0.828125 0.28125q-0.359375 0.265625 -0.515625 0.765625q-0.234375 0.75 -0.234375 1.640625l0 4.34375l-1.40625 0zm10.75 -1.03125q-0.78125 0.671875 -1.5 0.953125q-0.71875 0.265625 -1.546875 0.265625q-1.375 0 -2.109375 -0.671875q-0.734375 -0.671875 -0.734375 -1.703125q0 -0.609375 0.28125 -1.109375q0.28125 -0.515625 0.71875 -0.8125q0.453125 -0.3125 1.015625 -0.46875q0.421875 -0.109375 1.25 -0.203125q1.703125 -0.203125 2.515625 -0.484375q0 -0.296875 0 -0.375q0 -0.859375 -0.390625 -1.203125q-0.546875 -0.484375 -1.609375 -0.484375q-0.984375 0 -1.46875 0.359375q-0.46875 0.34375 -0.6875 1.21875l-1.375 -0.1875q0.1875 -0.875 0.609375 -1.421875q0.4375 -0.546875 1.25 -0.828125q0.8125 -0.296875 1.875 -0.296875q1.0625 0 1.71875 0.25q0.671875 0.25 0.984375 0.625q0.3125 0.375 0.4375 0.953125q0.078125 0.359375 0.078125 1.296875l0 1.875q0 1.96875 0.078125 2.484375q0.09375 0.515625 0.359375 1.0l-1.46875 0q-0.21875 -0.4375 -0.28125 -1.03125zm-0.109375 -3.140625q-0.765625 0.3125 -2.296875 0.53125q-0.875 0.125 -1.234375 0.28125q-0.359375 0.15625 -0.5625 0.46875q-0.1875 0.296875 -0.1875 0.65625q0 0.5625 0.421875 0.9375q0.4375 0.375 1.25 0.375q0.8125 0 1.4375 -0.34375q0.640625 -0.359375 0.9375 -0.984375q0.234375 -0.46875 0.234375 -1.40625l0 -0.515625zm6.6640625 2.90625l0.203125 1.25q-0.59375 0.125 -1.0625 0.125q-0.765625 0 -1.1875 -0.234375q-0.421875 -0.25 -0.59375 -0.640625q-0.171875 -0.40625 -0.171875 -1.671875l0 -4.765625l-1.03125 0l0 -1.09375l1.03125 0l0 -2.0625l1.40625 -0.84375l0 2.90625l1.40625 0l0 1.09375l-1.40625 0l0 4.84375q0 0.609375 0.0625 0.78125q0.078125 0.171875 0.25 0.28125q0.171875 0.09375 0.484375 0.09375q0.234375 0 0.609375 -0.0625zm1.3828125 -8.578125l0 -1.609375l1.40625 0l0 1.609375l-1.40625 0zm0 9.84375l0 -8.296875l1.40625 0l0 8.296875l-1.40625 0zm3.0234375 -4.15625q0 -2.296875 1.28125 -3.40625q1.078125 -0.921875 2.609375 -0.921875q1.71875 0 2.796875 1.125q1.09375 1.109375 1.09375 3.09375q0 1.59375 -0.484375 2.515625q-0.484375 0.921875 -1.40625 1.4375q-0.90625 0.5 -2.0 0.5q-1.734375 0 -2.8125 -1.109375q-1.078125 -1.125 -1.078125 -3.234375zm1.453125 0q0 1.59375 0.6875 2.390625q0.703125 0.796875 1.75 0.796875q1.046875 0 1.734375 -0.796875q0.703125 -0.796875 0.703125 -2.4375q0 -1.53125 -0.703125 -2.328125q-0.6875 -0.796875 -1.734375 -0.796875q-1.046875 0 -1.75 0.796875q-0.6875 0.78125 -0.6875 2.375zm7.9765625 4.15625l0 -8.296875l1.265625 0l0 1.171875q0.90625 -1.359375 2.640625 -1.359375q0.75 0 1.375 0.265625q0.625 0.265625 0.9375 0.703125q0.3125 0.4375 0.4375 1.046875q0.078125 0.390625 0.078125 1.359375l0 5.109375l-1.40625 0l0 -5.046875q0 -0.859375 -0.171875 -1.28125q-0.15625 -0.4375 -0.578125 -0.6875q-0.40625 -0.25 -0.96875 -0.25q-0.90625 0 -1.5625 0.578125q-0.640625 0.5625 -0.640625 2.15625l0 4.53125l-1.40625 0zm14.5703125 -2.671875l1.453125 0.171875q-0.34375 1.28125 -1.28125 1.984375q-0.921875 0.703125 -2.359375 0.703125q-1.828125 0 -2.890625 -1.125q-1.0625 -1.125 -1.0625 -3.140625q0 -2.09375 1.078125 -3.25q1.078125 -1.15625 2.796875 -1.15625q1.65625 0 2.703125 1.140625q1.0625 1.125 1.0625 3.171875q0 0.125 0 0.375l-6.1875 0q0.078125 1.375 0.765625 2.109375q0.703125 0.71875 1.734375 0.71875q0.78125 0 1.328125 -0.40625q0.546875 -0.40625 0.859375 -1.296875zm-4.609375 -2.28125l4.625 0q-0.09375 -1.046875 -0.53125 -1.5625q-0.671875 -0.8125 -1.734375 -0.8125q-0.96875 0 -1.640625 0.65625q-0.65625 0.640625 -0.71875 1.71875zm7.8203125 4.953125l0 -8.296875l1.265625 0l0 1.25q0.484375 -0.875 0.890625 -1.15625q0.40625 -0.28125 0.90625 -0.28125q0.703125 0 1.4375 0.453125l-0.484375 1.296875q-0.515625 -0.296875 -1.03125 -0.296875q-0.453125 0 -0.828125 0.28125q-0.359375 0.265625 -0.515625 0.765625q-0.234375 0.75 -0.234375 1.640625l0 4.34375l-1.40625 0z" fill-rule="nonzero"/><path fill="#000000" fill-opacity="0.0" d="m712.7402 462.04462l16.566895 -24.314972" fill-rule="evenodd"/><path stroke="#000000" stroke-width="1.0" stroke-linejoin="round" stroke-linecap="butt" d="m712.7402 462.04462l13.188477 -19.356506" fill-rule="evenodd"/><path fill="#000000" stroke="#000000" stroke-width="1.0" stroke-linecap="butt" d="m727.29364 443.61816l1.1903076 -4.6803894l-3.920288 2.820282z" fill-rule="evenodd"/><path fill="#000000" fill-opacity="0.0" d="m712.46454 462.32022l16.566956 25.417297" fill-rule="evenodd"/><path stroke="#000000" stroke-width="1.0" stroke-linejoin="round" stroke-linecap="butt" d="m712.46454 462.32022l13.29071 20.390778" fill-rule="evenodd"/><path fill="#000000" stroke="#000000" stroke-width="1.0" stroke-linecap="butt" d="m724.37146 483.6129l3.8617554 2.8999023l-1.0942383 -4.7037354z" fill-rule="evenodd"/><path fill="#000000" fill-opacity="0.0" d="m713.2834 462.59885l16.031494 1.9212646" fill-rule="evenodd"/><path stroke="#000000" stroke-width="1.0" stroke-linejoin="round" stroke-linecap="butt" d="m713.2834 462.59885l10.074158 1.2073059" fill-rule="evenodd"/><path fill="#000000" stroke="#000000" stroke-width="1.0" stroke-linecap="butt" d="m723.16095 465.44614l4.7023926 -1.1000061l-4.309265 -2.1799927z" fill-rule="evenodd"/><path fill="#fce5cd" d="m667.3307 189.24934l232.18903 0l0 53.196854l-232.18903 0z" fill-rule="evenodd"/><path stroke="#000000" stroke-width="1.0" stroke-linejoin="round" stroke-linecap="butt" d="m667.3307 189.24934l232.18903 0l0 53.196854l-232.18903 0z" fill-rule="evenodd"/><path fill="#fce5cd" d="m667.3228 88.48819l232.18903 0l0 53.196854l-232.18903 0z" fill-rule="evenodd"/><path stroke="#000000" stroke-width="1.0" stroke-linejoin="round" stroke-linecap="butt" d="m667.3228 88.48819l232.18903 0l0 53.196854l-232.18903 0z" fill-rule="evenodd"/><path fill="#000000" fill-opacity="0.0" d="m577.15485 361.50394l64.75592 -195.40158" fill-rule="evenodd"/><path stroke="#000000" stroke-width="1.0" stroke-linejoin="round" stroke-linecap="butt" d="m577.15485 361.50394l64.75592 -195.40158" fill-rule="evenodd"/><path fill="#000000" fill-opacity="0.0" d="m641.895 167.28346l26.015747 -25.417328" fill-rule="evenodd"/><path stroke="#000000" stroke-width="1.0" stroke-linejoin="round" stroke-linecap="butt" d="m641.895 167.28346l21.72406 -21.22432" fill-rule="evenodd"/><path fill="#000000" stroke="#000000" stroke-width="1.0" stroke-linecap="butt" d="m664.7733 147.2406l2.0917969 -4.352829l-4.4003296 1.9898987z" fill-rule="evenodd"/><path fill="#000000" fill-opacity="0.0" d="m641.895 167.28346l27.181091 21.952759" fill-rule="evenodd"/><path stroke="#000000" stroke-width="1.0" stroke-linejoin="round" stroke-linecap="butt" d="m641.895 167.28346l22.513367 18.182861" fill-rule="evenodd"/><path fill="#000000" stroke="#000000" stroke-width="1.0" stroke-linecap="butt" d="m663.37054 186.7513l4.5682983 1.566391l-2.4926758 -4.1363373z" fill-rule="evenodd"/><path fill="#000000" fill-opacity="0.0" d="m673.1102 94.07874l244.50397 0l0 42.01574l-244.50397 0z" fill-rule="evenodd"/><path fill="#000000" d="m683.50085 120.99874l0 -13.359375l2.65625 0l3.15625 9.453125q0.4375 1.328125 0.640625 1.984375q0.234375 -0.734375 0.703125 -2.140625l3.203125 -9.296875l2.375 0l0 13.359375l-1.703125 0l0 -11.171875l-3.875 11.171875l-1.59375 0l-3.859375 -11.375l0 11.375l-1.703125 0zm21.697083 -1.1875q-0.921875 0.765625 -1.765625 1.09375q-0.828125 0.3125 -1.796875 0.3125q-1.59375 0 -2.453125 -0.78125q-0.859375 -0.78125 -0.859375 -1.984375q0 -0.71875 0.328125 -1.296875q0.328125 -0.59375 0.84375 -0.9375q0.53125 -0.359375 1.1875 -0.546875q0.46875 -0.125 1.453125 -0.25q1.984375 -0.234375 2.921875 -0.5625q0.015625 -0.34375 0.015625 -0.421875q0 -1.0 -0.46875 -1.421875q-0.625 -0.546875 -1.875 -0.546875q-1.15625 0 -1.703125 0.40625q-0.546875 0.40625 -0.8125 1.421875l-1.609375 -0.21875q0.21875 -1.015625 0.71875 -1.640625q0.5 -0.640625 1.453125 -0.984375q0.953125 -0.34375 2.1875 -0.34375q1.25 0 2.015625 0.296875q0.78125 0.28125 1.140625 0.734375q0.375 0.4375 0.515625 1.109375q0.078125 0.421875 0.078125 1.515625l0 2.1875q0 2.28125 0.109375 2.890625q0.109375 0.59375 0.40625 1.15625l-1.703125 0q-0.265625 -0.515625 -0.328125 -1.1875zm-0.140625 -3.671875q-0.890625 0.375 -2.671875 0.625q-1.015625 0.140625 -1.4375 0.328125q-0.421875 0.1875 -0.65625 0.53125q-0.21875 0.34375 -0.21875 0.78125q0 0.65625 0.5 1.09375q0.5 0.4375 1.453125 0.4375q0.9375 0 1.671875 -0.40625q0.75 -0.421875 1.09375 -1.140625q0.265625 -0.5625 0.265625 -1.640625l0 -0.609375zm3.8912964 5.65625l1.59375 0.234375q0.109375 0.75 0.5625 1.078125q0.609375 0.453125 1.671875 0.453125q1.140625 0 1.75 -0.453125q0.625 -0.453125 0.84375 -1.265625q0.125 -0.5 0.109375 -2.109375q-1.0625 1.265625 -2.671875 1.265625q-2.0 0 -3.09375 -1.4375q-1.09375 -1.4375 -1.09375 -3.453125q0 -1.390625 0.5 -2.5625q0.515625 -1.171875 1.453125 -1.796875q0.953125 -0.640625 2.25 -0.640625q1.703125 0 2.8125 1.375l0 -1.15625l1.515625 0l0 8.359375q0 2.265625 -0.46875 3.203125q-0.453125 0.9375 -1.453125 1.484375q-0.984375 0.546875 -2.453125 0.546875q-1.71875 0 -2.796875 -0.78125q-1.0625 -0.765625 -1.03125 -2.34375zm1.359375 -5.8125q0 1.90625 0.75 2.78125q0.765625 0.875 1.90625 0.875q1.125 0 1.890625 -0.859375q0.765625 -0.875 0.765625 -2.734375q0 -1.78125 -0.796875 -2.671875q-0.78125 -0.90625 -1.890625 -0.90625q-1.09375 0 -1.859375 0.890625q-0.765625 0.875 -0.765625 2.625zm15.953857 1.90625l1.6875 0.203125q-0.40625 1.484375 -1.484375 2.3125q-1.078125 0.8125 -2.765625 0.8125q-2.125 0 -3.375 -1.296875q-1.234375 -1.3125 -1.234375 -3.671875q0 -2.453125 1.25 -3.796875q1.265625 -1.34375 3.265625 -1.34375q1.9375 0 3.15625 1.328125q1.234375 1.3125 1.234375 3.703125q0 0.15625 0 0.4375l-7.21875 0q0.09375 1.59375 0.90625 2.453125q0.8125 0.84375 2.015625 0.84375q0.90625 0 1.546875 -0.46875q0.640625 -0.484375 1.015625 -1.515625zm-5.390625 -2.65625l5.40625 0q-0.109375 -1.21875 -0.625 -1.828125q-0.78125 -0.953125 -2.03125 -0.953125q-1.125 0 -1.90625 0.765625q-0.765625 0.75 -0.84375 2.015625zm9.141357 5.765625l0 -9.671875l1.46875 0l0 1.375q1.0625 -1.59375 3.078125 -1.59375q0.875 0 1.609375 0.3125q0.734375 0.3125 1.09375 0.828125q0.375 0.5 0.515625 1.203125q0.09375 0.453125 0.09375 1.59375l0 5.953125l-1.640625 0l0 -5.890625q0 -1.0 -0.203125 -1.484375q-0.1875 -0.5 -0.671875 -0.796875q-0.484375 -0.296875 -1.140625 -0.296875q-1.046875 0 -1.8125 0.671875q-0.75 0.65625 -0.75 2.515625l0 5.28125l-1.640625 0zm13.953857 -1.46875l0.234375 1.453125q-0.6875 0.140625 -1.234375 0.140625q-0.890625 0 -1.390625 -0.28125q-0.484375 -0.28125 -0.6875 -0.734375q-0.203125 -0.46875 -0.203125 -1.9375l0 -5.578125l-1.203125 0l0 -1.265625l1.203125 0l0 -2.390625l1.625 -0.984375l0 3.375l1.65625 0l0 1.265625l-1.65625 0l0 5.671875q0 0.6875 0.078125 0.890625q0.09375 0.203125 0.28125 0.328125q0.203125 0.109375 0.578125 0.109375q0.265625 0 0.71875 -0.0625zm7.9176636 0.28125q-0.921875 0.765625 -1.765625 1.09375q-0.828125 0.3125 -1.796875 0.3125q-1.59375 0 -2.453125 -0.78125q-0.859375 -0.78125 -0.859375 -1.984375q0 -0.71875 0.328125 -1.296875q0.328125 -0.59375 0.84375 -0.9375q0.53125 -0.359375 1.1875 -0.546875q0.46875 -0.125 1.453125 -0.25q1.984375 -0.234375 2.921875 -0.5625q0.015625 -0.34375 0.015625 -0.421875q0 -1.0 -0.46875 -1.421875q-0.625 -0.546875 -1.875 -0.546875q-1.15625 0 -1.703125 0.40625q-0.546875 0.40625 -0.8125 1.421875l-1.609375 -0.21875q0.21875 -1.015625 0.71875 -1.640625q0.5 -0.640625 1.453125 -0.984375q0.953125 -0.34375 2.1875 -0.34375q1.25 0 2.015625 0.296875q0.78125 0.28125 1.140625 0.734375q0.375 0.4375 0.515625 1.109375q0.078125 0.421875 0.078125 1.515625l0 2.1875q0 2.28125 0.109375 2.890625q0.109375 0.59375 0.40625 1.15625l-1.703125 0q-0.265625 -0.515625 -0.328125 -1.1875zm-0.140625 -3.671875q-0.890625 0.375 -2.671875 0.625q-1.015625 0.140625 -1.4375 0.328125q-0.421875 0.1875 -0.65625 0.53125q-0.21875 0.34375 -0.21875 0.78125q0 0.65625 0.5 1.09375q0.5 0.4375 1.453125 0.4375q0.9375 0 1.671875 -0.40625q0.75 -0.421875 1.09375 -1.140625q0.265625 -0.5625 0.265625 -1.640625l0 -0.609375zm9.590271 4.859375l0 -13.359375l4.609375 0q1.546875 0 2.375 0.203125q1.140625 0.25 1.953125 0.953125q1.0625 0.890625 1.578125 2.28125q0.53125 1.390625 0.53125 3.171875q0 1.515625 -0.359375 2.703125q-0.359375 1.171875 -0.921875 1.9375q-0.546875 0.765625 -1.203125 1.21875q-0.65625 0.4375 -1.59375 0.671875q-0.9375 0.21875 -2.140625 0.21875l-4.828125 0zm1.765625 -1.578125l2.859375 0q1.3125 0 2.0625 -0.234375q0.75 -0.25 1.203125 -0.703125q0.625 -0.625 0.96875 -1.6875q0.359375 -1.0625 0.359375 -2.578125q0 -2.09375 -0.6875 -3.21875q-0.6875 -1.125 -1.671875 -1.5q-0.703125 -0.28125 -2.28125 -0.28125l-2.8125 0l0 10.203125zm11.691711 1.578125l0 -13.359375l1.8125 0l7.015625 10.484375l0 -10.484375l1.6875 0l0 13.359375l-1.8125 0l-7.015625 -10.5l0 10.5l-1.6875 0zm12.894775 -4.296875l1.65625 -0.140625q0.125 1.0 0.546875 1.640625q0.4375 0.640625 1.34375 1.046875q0.921875 0.390625 2.0625 0.390625q1.0 0 1.78125 -0.296875q0.78125 -0.296875 1.15625 -0.8125q0.375 -0.53125 0.375 -1.15625q0 -0.625 -0.375 -1.09375q-0.359375 -0.46875 -1.1875 -0.796875q-0.546875 -0.203125 -2.390625 -0.640625q-1.828125 -0.453125 -2.5625 -0.84375q-0.96875 -0.5 -1.4375 -1.234375q-0.46875 -0.75 -0.46875 -1.671875q0 -1.0 0.578125 -1.875q0.578125 -0.890625 1.671875 -1.34375q1.109375 -0.453125 2.453125 -0.453125q1.484375 0 2.609375 0.484375q1.140625 0.46875 1.75 1.40625q0.609375 0.921875 0.65625 2.09375l-1.6875 0.125q-0.140625 -1.265625 -0.9375 -1.90625q-0.78125 -0.65625 -2.3125 -0.65625q-1.609375 0 -2.34375 0.59375q-0.734375 0.59375 -0.734375 1.421875q0 0.71875 0.53125 1.171875q0.5 0.46875 2.65625 0.96875q2.15625 0.484375 2.953125 0.84375q1.171875 0.53125 1.71875 1.359375q0.5625 0.828125 0.5625 1.90625q0 1.0625 -0.609375 2.015625q-0.609375 0.9375 -1.75 1.46875q-1.140625 0.515625 -2.578125 0.515625q-1.8125 0 -3.046875 -0.53125q-1.21875 -0.53125 -1.921875 -1.59375q-0.6875 -1.0625 -0.71875 -2.40625z" fill-rule="nonzero"/><path fill="#000000" fill-opacity="0.0" d="m673.69293 194.83989l243.33856 0l0 42.015747l-243.33856 0z" fill-rule="evenodd"/><path fill="#000000" d="m684.0523 221.75989l0 -13.359375l1.78125 0l0 11.78125l6.5625 0l0 1.578125l-8.34375 0zm16.875671 -3.109375l1.6875 0.203125q-0.40625 1.484375 -1.484375 2.3125q-1.078125 0.8125 -2.765625 0.8125q-2.125 0 -3.375 -1.296875q-1.234375 -1.3125 -1.234375 -3.671875q0 -2.453125 1.25 -3.796875q1.265625 -1.34375 3.265625 -1.34375q1.9375 0 3.15625 1.328125q1.234375 1.3125 1.234375 3.703125q0 0.15625 0 0.4375l-7.21875 0q0.09375 1.59375 0.90625 2.453125q0.8125 0.84375 2.015625 0.84375q0.90625 0 1.546875 -0.46875q0.640625 -0.484375 1.015625 -1.515625zm-5.390625 -2.65625l5.40625 0q-0.109375 -1.21875 -0.625 -1.828125q-0.78125 -0.953125 -2.03125 -0.953125q-1.125 0 -1.90625 0.765625q-0.765625 0.75 -0.84375 2.015625zm12.719482 4.296875l0.234375 1.453125q-0.6875 0.140625 -1.234375 0.140625q-0.890625 0 -1.390625 -0.28125q-0.484375 -0.28125 -0.6875 -0.734375q-0.203125 -0.46875 -0.203125 -1.9375l0 -5.578125l-1.203125 0l0 -1.265625l1.203125 0l0 -2.390625l1.625 -0.984375l0 3.375l1.65625 0l0 1.265625l-1.65625 0l0 5.671875q0 0.6875 0.078125 0.890625q0.09375 0.203125 0.28125 0.328125q0.203125 0.109375 0.578125 0.109375q0.265625 0 0.71875 -0.0625zm1.4957886 -10.125l0 -1.890625l1.765625 0l0 1.5q0 1.21875 -0.28125 1.75q-0.390625 0.75 -1.21875 1.109375l-0.40625 -0.640625q0.484375 -0.203125 0.71875 -0.625q0.25 -0.4375 0.28125 -1.203125l-0.859375 0zm3.2607422 8.703125l1.625 -0.25q0.125 0.96875 0.75 1.5q0.625 0.515625 1.75 0.515625q1.125 0 1.671875 -0.453125q0.546875 -0.46875 0.546875 -1.09375q0 -0.546875 -0.484375 -0.875q-0.328125 -0.21875 -1.671875 -0.546875q-1.8125 -0.46875 -2.515625 -0.796875q-0.6875 -0.328125 -1.046875 -0.90625q-0.359375 -0.59375 -0.359375 -1.3125q0 -0.640625 0.296875 -1.1875q0.296875 -0.5625 0.8125 -0.921875q0.375 -0.28125 1.03125 -0.46875q0.671875 -0.203125 1.421875 -0.203125q1.140625 0 2.0 0.328125q0.859375 0.328125 1.265625 0.890625q0.421875 0.5625 0.578125 1.5l-1.609375 0.21875q-0.109375 -0.75 -0.640625 -1.171875q-0.515625 -0.421875 -1.46875 -0.421875q-1.140625 0 -1.625 0.375q-0.46875 0.375 -0.46875 0.875q0 0.3125 0.1875 0.578125q0.203125 0.265625 0.640625 0.4375q0.234375 0.09375 1.4375 0.421875q1.75 0.453125 2.4375 0.75q0.6875 0.296875 1.078125 0.859375q0.390625 0.5625 0.390625 1.40625q0 0.828125 -0.484375 1.546875q-0.46875 0.71875 -1.375 1.125q-0.90625 0.390625 -2.046875 0.390625q-1.875 0 -2.875 -0.78125q-0.984375 -0.78125 -1.25 -2.328125zm15.402039 2.890625l0 -13.359375l9.65625 0l0 1.578125l-7.875 0l0 4.09375l7.375 0l0 1.5625l-7.375 0l0 4.546875l8.1875 0l0 1.578125l-9.96875 0zm12.2092285 0l0 -9.671875l1.46875 0l0 1.375q1.0625 -1.59375 3.078125 -1.59375q0.875 0 1.609375 0.3125q0.734375 0.3125 1.09375 0.828125q0.375 0.5 0.515625 1.203125q0.09375 0.453125 0.09375 1.59375l0 5.953125l-1.640625 0l0 -5.890625q0 -1.0 -0.203125 -1.484375q-0.1875 -0.5 -0.671875 -0.796875q-0.484375 -0.296875 -1.140625 -0.296875q-1.046875 0 -1.8125 0.671875q-0.75 0.65625 -0.75 2.515625l0 5.28125l-1.640625 0zm16.688171 -3.546875l1.609375 0.21875q-0.265625 1.65625 -1.359375 2.609375q-1.078125 0.9375 -2.671875 0.9375q-1.984375 0 -3.1875 -1.296875q-1.203125 -1.296875 -1.203125 -3.71875q0 -1.578125 0.515625 -2.75q0.515625 -1.171875 1.578125 -1.75q1.0625 -0.59375 2.3125 -0.59375q1.578125 0 2.578125 0.796875q1.0 0.796875 1.28125 2.265625l-1.59375 0.234375q-0.234375 -0.96875 -0.8125 -1.453125q-0.578125 -0.5 -1.390625 -0.5q-1.234375 0 -2.015625 0.890625q-0.78125 0.890625 -0.78125 2.8125q0 1.953125 0.75 2.84375q0.75 0.875 1.953125 0.875q0.96875 0 1.609375 -0.59375q0.65625 -0.59375 0.828125 -1.828125zm3.0 3.546875l0 -9.671875l1.46875 0l0 1.46875q0.5625 -1.03125 1.03125 -1.359375q0.484375 -0.328125 1.0625 -0.328125q0.828125 0 1.6875 0.53125l-0.5625 1.515625q-0.609375 -0.359375 -1.203125 -0.359375q-0.546875 0 -0.96875 0.328125q-0.421875 0.328125 -0.609375 0.890625q-0.28125 0.875 -0.28125 1.921875l0 5.0625l-1.625 0zm6.1502075 3.71875l-0.1875 -1.53125q0.546875 0.140625 0.9375 0.140625q0.546875 0 0.875 -0.1875q0.328125 -0.171875 0.546875 -0.5q0.15625 -0.25 0.5 -1.21875q0.046875 -0.140625 0.140625 -0.40625l-3.671875 -9.6875l1.765625 0l2.015625 5.59375q0.390625 1.078125 0.703125 2.25q0.28125 -1.125 0.671875 -2.203125l2.078125 -5.640625l1.640625 0l-3.6875 9.828125q-0.59375 1.609375 -0.921875 2.203125q-0.4375 0.8125 -1.0 1.1875q-0.5625 0.375 -1.34375 0.375q-0.484375 0 -1.0625 -0.203125zm9.40625 -0.015625l0 -13.375l1.484375 0l0 1.25q0.53125 -0.734375 1.1875 -1.09375q0.671875 -0.375 1.625 -0.375q1.234375 0 2.171875 0.640625q0.953125 0.625 1.4375 1.796875q0.484375 1.15625 0.484375 2.546875q0 1.484375 -0.53125 2.671875q-0.53125 1.1875 -1.546875 1.828125q-1.015625 0.625 -2.140625 0.625q-0.8125 0 -1.46875 -0.34375q-0.65625 -0.34375 -1.0625 -0.875l0 4.703125l-1.640625 0zm1.484375 -8.484375q0 1.859375 0.75 2.765625q0.765625 0.890625 1.828125 0.890625q1.09375 0 1.875 -0.921875q0.78125 -0.9375 0.78125 -2.875q0 -1.84375 -0.765625 -2.765625q-0.75 -0.921875 -1.8125 -0.921875q-1.046875 0 -1.859375 0.984375q-0.796875 0.96875 -0.796875 2.84375zm12.469482 3.3125l0.234375 1.453125q-0.6875 0.140625 -1.234375 0.140625q-0.890625 0 -1.390625 -0.28125q-0.484375 -0.28125 -0.6875 -0.734375q-0.203125 -0.46875 -0.203125 -1.9375l0 -5.578125l-1.203125 0l0 -1.265625l1.203125 0l0 -2.390625l1.625 -0.984375l0 3.375l1.65625 0l0 1.265625l-1.65625 0l0 5.671875q0 0.6875 0.078125 0.890625q0.09375 0.203125 0.28125 0.328125q0.203125 0.109375 0.578125 0.109375q0.265625 0 0.71875 -0.0625z" fill-rule="nonzero"/><path fill="#000000" fill-opacity="0.0" d="m768.48553 188.6693l0 -45.070877" fill-rule="evenodd"/><path stroke="#000000" stroke-width="1.0" stroke-linejoin="round" stroke-linecap="butt" d="m768.48553 188.6693l0 -39.070877" fill-rule="evenodd"/><path fill="#000000" stroke="#000000" stroke-width="1.0" stroke-linecap="butt" d="m770.13727 149.59842l-1.6517334 -4.538086l-1.6516724 4.538086z" fill-rule="evenodd"/><path fill="#000000" fill-opacity="0.0" d="m760.39105 150.48294l163.59058 0l0 35.55905l-163.59058 0z" fill-rule="evenodd"/><path fill="#000000" d="m770.4223 172.28294l0 -9.546875l3.28125 0q1.109375 0 1.703125 0.140625q0.8125 0.1875 1.390625 0.6875q0.765625 0.640625 1.140625 1.640625q0.375 0.984375 0.375 2.25q0 1.09375 -0.265625 1.9375q-0.25 0.828125 -0.65625 1.390625q-0.390625 0.546875 -0.859375 0.859375q-0.46875 0.3125 -1.140625 0.484375q-0.65625 0.15625 -1.53125 0.15625l-3.4375 0zm1.265625 -1.125l2.03125 0q0.9375 0 1.46875 -0.171875q0.546875 -0.1875 0.875 -0.5q0.4375 -0.453125 0.6875 -1.203125q0.25 -0.765625 0.25 -1.84375q0 -1.5 -0.5 -2.296875q-0.484375 -0.8125 -1.1875 -1.078125q-0.5 -0.203125 -1.625 -0.203125l-2.0 0l0 7.296875zm8.343933 1.125l0 -9.546875l1.296875 0l5.015625 7.5l0 -7.5l1.203125 0l0 9.546875l-1.296875 0l-5.015625 -7.5l0 7.5l-1.203125 0zm9.203247 -3.0625l1.203125 -0.109375q0.078125 0.71875 0.390625 1.1875q0.3125 0.453125 0.953125 0.734375q0.65625 0.28125 1.46875 0.28125q0.71875 0 1.265625 -0.21875q0.5625 -0.21875 0.828125 -0.578125q0.265625 -0.375 0.265625 -0.828125q0 -0.453125 -0.265625 -0.78125q-0.25 -0.328125 -0.84375 -0.5625q-0.390625 -0.15625 -1.703125 -0.46875q-1.3125 -0.3125 -1.84375 -0.59375q-0.671875 -0.359375 -1.015625 -0.890625q-0.328125 -0.53125 -0.328125 -1.1875q0 -0.71875 0.40625 -1.34375q0.40625 -0.625 1.1875 -0.953125q0.796875 -0.328125 1.765625 -0.328125q1.046875 0 1.859375 0.34375q0.8125 0.34375 1.25 1.015625q0.4375 0.65625 0.46875 1.484375l-1.203125 0.09375q-0.109375 -0.90625 -0.671875 -1.359375q-0.5625 -0.46875 -1.65625 -0.46875q-1.140625 0 -1.671875 0.421875q-0.515625 0.421875 -0.515625 1.015625q0 0.515625 0.359375 0.84375q0.375 0.328125 1.90625 0.6875q1.546875 0.34375 2.109375 0.59375q0.84375 0.390625 1.234375 0.984375q0.390625 0.578125 0.390625 1.359375q0 0.75 -0.4375 1.4375q-0.421875 0.671875 -1.25 1.046875q-0.8125 0.359375 -1.828125 0.359375q-1.296875 0 -2.171875 -0.375q-0.875 -0.375 -1.375 -1.125q-0.5 -0.765625 -0.53125 -1.71875zm8.7178955 0.203125l0 -1.1875l3.59375 0l0 1.1875l-3.59375 0zm4.5633545 -1.84375q0 -1.6875 0.34375 -2.71875q0.359375 -1.03125 1.046875 -1.59375q0.6875 -0.5625 1.71875 -0.5625q0.78125 0 1.359375 0.3125q0.578125 0.296875 0.953125 0.890625q0.375 0.578125 0.59375 1.421875q0.21875 0.828125 0.21875 2.25q0 1.671875 -0.359375 2.703125q-0.34375 1.03125 -1.03125 1.59375q-0.671875 0.5625 -1.734375 0.5625q-1.375 0 -2.15625 -0.984375q-0.953125 -1.1875 -0.953125 -3.875zm1.203125 0q0 2.34375 0.546875 3.125q0.5625 0.78125 1.359375 0.78125q0.8125 0 1.359375 -0.78125q0.5625 -0.78125 0.5625 -3.125q0 -2.359375 -0.5625 -3.125q-0.546875 -0.78125 -1.359375 -0.78125q-0.8125 0 -1.296875 0.6875q-0.609375 0.875 -0.609375 3.21875zm10.631226 4.703125l-1.171875 0l0 -7.46875q-0.421875 0.40625 -1.109375 0.8125q-0.6875 0.40625 -1.234375 0.609375l0 -1.140625q0.984375 -0.453125 1.71875 -1.109375q0.734375 -0.671875 1.03125 -1.28125l0.765625 0l0 9.578125z" fill-rule="nonzero"/><path fill="#000000" fill-opacity="0.0" d="m563.3489 316.65228l51.527527 -150.5512l33.637817 11.496063l-51.527588 150.5512z" fill-rule="evenodd"/><path fill="#000000" d="m586.2626 306.69952l0.7055664 -1.0963745q1.3520508 0.8748779 1.7869263 2.1133423q0.43493652 1.2384338 -0.05078125 2.6576233q-0.4958496 1.4487305 -1.401001 2.1631775q-0.90509033 0.7144165 -2.1957397 0.8182373q-1.2855835 0.089019775 -2.586731 -0.35565186q-1.404602 -0.4800415 -2.2722168 -1.3710022q-0.8625488 -0.9057312 -1.0706177 -2.0831604q-0.20300293 -1.1922302 0.20684814 -2.3896484q0.46038818 -1.3452759 1.4690552 -2.0243225q0.99884033 -0.6989136 2.38208 -0.63897705l-0.12384033 1.278656q-1.0968628 -0.02810669 -1.7478638 0.42642212q-0.66070557 0.43466187 -0.96936035 1.3364563q-0.354187 1.0348206 -0.09436035 1.9161987q0.26489258 0.86660767 1.0115356 1.4355164q0.73187256 0.5638428 1.6337891 0.8720703q1.1532593 0.39416504 2.1220703 0.3619995q0.973938 -0.046936035 1.6455688 -0.60998535q0.65686035 -0.56811523 0.94018555 -1.3959656q0.3441162 -1.005249 0.0052490234 -1.8971252q-0.33880615 -0.8918762 -1.3963623 -1.5174866zm3.4628906 -6.643524l0.5227051 -1.092804q0.91430664 0.6096802 1.2231445 1.540863q0.2991333 0.91134644 -0.0904541 2.0496216q-0.4907837 1.4339905 -1.6663208 1.9734192q-1.1754761 0.5394592 -2.7575073 -0.0012207031q-1.6560059 -0.56591797 -2.2694702 -1.7167969q-0.62323 -1.1707153 -0.15777588 -2.5307617q0.45031738 -1.3157043 1.6207886 -1.8403625q1.1704712 -0.5246887 2.796875 0.031158447q0.10345459 0.035369873 0.2956543 0.1010437l-1.6696777 4.8784485q1.0996094 0.3097229 1.8634033 -0.040161133q0.7490845 -0.35498047 1.0273438 -1.1680298q0.21252441 -0.62091064 0.04876709 -1.1557312q-0.17858887 -0.5398865 -0.7874756 -1.0286865zm-3.048462 3.020172l1.2496948 -3.6514282q-0.83843994 -0.20401001 -1.3688354 -0.0054626465q-0.83270264 0.30984497 -1.1210938 1.1524963q-0.26312256 0.7687073 0.07727051 1.4629822q0.32562256 0.689209 1.1629639 1.0414124zm6.010132 -4.8216553l-6.535095 -2.2334595l0.34405518 -1.005249l0.9906006 0.338562q-0.5633545 -0.6218567 -0.67889404 -1.0080872q-0.11047363 -0.4010315 0.026184082 -0.8001709q0.19226074 -0.5617676 0.74438477 -1.0170288l0.8886719 0.7330322q-0.37823486 0.33306885 -0.51483154 0.73220825q-0.12652588 0.36956787 -0.00592041 0.74102783q0.12567139 0.35668945 0.4696045 0.60632324q0.52563477 0.39431763 1.22052 0.6318054l3.4302368 1.1723022l-0.3795166 1.1087341zm1.2814941 -6.9769897l1.0314941 0.17089844q-0.058410645 0.50842285 -0.18493652 0.8779907q-0.2074585 0.6061096 -0.5159912 0.8804321q-0.30352783 0.259552 -0.65960693 0.2864685q-0.35601807 0.026947021 -1.3613892 -0.3166809l-3.7554932 -1.2834778l-0.2783203 0.81307983l-0.85754395 -0.2930603l0.2783203 -0.81307983l-1.6264038 -0.55584717l-0.28588867 -1.3361206l2.291748 0.78323364l0.37945557 -1.1087341l0.85754395 0.29309082l-0.37945557 1.1087341l3.8294067 1.3087158q0.47314453 0.16171265 0.6213989 0.1628418q0.15332031 -0.013671875 0.28753662 -0.11639404q0.119506836 -0.107788086 0.20550537 -0.35910034q0.06573486 -0.19216919 0.12261963 -0.5029907zm-6.3825684 -3.4030762l-1.2863159 -0.4396057l0.37945557 -1.1087341l1.2863159 0.4396057l-0.37945557 1.1087341zm7.7475586 2.6477966l-6.5351562 -2.233429l0.37945557 -1.1087341l6.5351562 2.233429l-0.37945557 1.1087341zm1.0448608 -3.0528564l-5.6776123 -1.9403687l-0.33392334 0.9756775l-0.85754395 -0.2930603l0.33392334 -0.9756775l-0.69488525 -0.23751831q-0.66534424 -0.22738647 -0.9501343 -0.45681763q-0.37316895 -0.30914307 -0.50268555 -0.7992554q-0.1295166 -0.4900818 0.12347412 -1.229248q0.15686035 -0.45828247 0.4576416 -0.9994507l0.91516113 0.5109253q-0.17553711 0.3197937 -0.28179932 0.6302185q-0.17199707 0.5026245 -0.021057129 0.7854004q0.13616943 0.27770996 0.72753906 0.47982788l0.6062012 0.20718384l0.43518066 -1.2713623l0.85754395 0.29309082l-0.43511963 1.2713318l5.6775513 1.9403687l-0.37945557 1.1087341zm-6.6344604 -5.899933l-1.2863159 -0.43963623l0.37945557 -1.1087341l1.2863159 0.43963623l-0.37945557 1.1087341zm7.7475586 2.6477966l-6.5351562 -2.2334595l0.37945557 -1.1087341l6.5351562 2.2334595l-0.37945557 1.1087341zm0.95880127 -2.8015442l-9.033813 -3.0874329l0.37945557 -1.1087341l5.160095 1.7635193l-1.7658081 -3.5261536l0.4907837 -1.43396l1.5697021 3.327057l5.0514526 -1.3449097l-0.46551514 1.3600464l-4.0802 1.0163269l0.48590088 1.0411987l2.5874634 0.88430786l-0.3795166 1.1087341zm2.801941 -10.840454q0.31976318 0.8027954 0.34423828 1.4551392q0.014709473 0.6324768 -0.20788574 1.282959q-0.36938477 1.0791626 -1.0841675 1.4788513q-0.72961426 0.3946228 -1.5576172 0.11166382q-0.4730835 -0.16171265 -0.80145264 -0.50509644q-0.32336426 -0.3581848 -0.43847656 -0.79382324q-0.115112305 -0.43563843 -0.09643555 -0.9246216q0.03741455 -0.35049438 0.1763916 -1.046051q0.29779053 -1.4008484 0.2935791 -2.1123352q-0.22180176 -0.07577515 -0.28094482 -0.0960083q-0.68011475 -0.23242188 -1.0672607 -0.017974854q-0.51641846 0.30236816 -0.8048096 1.1450195q-0.26306152 0.7687073 -0.113708496 1.2490845q0.13964844 0.46054077 0.7738037 0.87542725l-0.5171509 1.0286255q-0.64434814 -0.38531494 -0.9567261 -0.8718872q-0.31243896 -0.48654175 -0.3166504 -1.197998q-0.018981934 -0.7165222 0.26940918 -1.5591736q0.2883911 -0.84262085 0.65771484 -1.294342q0.3743286 -0.46652222 0.7658081 -0.5969238q0.38171387 -0.15026855 0.8754883 -0.09710693q0.29608154 0.05166626 1.0353394 0.3043213l1.4785767 0.50531006q1.5376587 0.5255127 1.9769287 0.5930786q0.43927002 0.06756592 0.87976074 -0.013061523l-0.39465332 1.1530762q-0.40075684 0.061187744 -0.8890991 -0.056152344zm-2.4995117 -0.7551575q0.043945312 0.6919861 -0.20831299 1.9598083q-0.12927246 0.71539307 -0.09234619 1.041748q0.022155762 0.32128906 0.20306396 0.5647583q0.18597412 0.22866821 0.46691895 0.3246765q0.44354248 0.15161133 0.85058594 -0.0725708q0.41204834 -0.23895264 0.6347046 -0.8894043q0.2175293 -0.63568115 0.10864258 -1.234314q-0.10888672 -0.5986328 -0.51586914 -1.0018921q-0.30889893 -0.30374146 -1.0481567 -0.5563965l-0.39923096 -0.13641357zm4.089966 -4.4706726l1.0314941 0.17086792q-0.058410645 0.50845337 -0.18493652 0.87802124q-0.2074585 0.6061096 -0.51605225 0.8804321q-0.3034668 0.25952148 -0.6595459 0.2864685q-0.35601807 0.026916504 -1.3613892 -0.3166809l-3.7554932 -1.2834778l-0.2783203 0.81307983l-0.85754395 -0.29309082l0.2783203 -0.8130493l-1.6264038 -0.55584717l-0.28588867 -1.3361206l2.291748 0.78323364l0.37945557 -1.1087341l0.85754395 0.2930603l-0.37945557 1.1087341l3.8294067 1.3087463q0.47314453 0.16171265 0.6213989 0.1628418q0.15332031 -0.013671875 0.28753662 -0.11639404q0.1194458 -0.107788086 0.20550537 -0.35910034q0.06573486 -0.19216919 0.12261963 -0.5029907zm1.4509888 -1.0065918l-5.6776123 -1.9403687l-0.33392334 0.9756775l-0.85754395 -0.2930603l0.33392334 -0.975708l-0.69488525 -0.2374878q-0.66534424 -0.22738647 -0.9501343 -0.45681763q-0.37316895 -0.30914307 -0.50268555 -0.7992554q-0.1295166 -0.4900818 0.12347412 -1.229248q0.15686035 -0.45828247 0.4576416 -0.9994507l0.91516113 0.5108948q-0.17553711 0.3197937 -0.28179932 0.630249q-0.17199707 0.5026245 -0.021057129 0.7854004q0.13616943 0.27770996 0.72753906 0.47982788l0.6062012 0.20715332l0.43518066 -1.2713318l0.85754395 0.2930603l-0.43511963 1.2713623l5.6775513 1.9403687l-0.37945557 1.1087341zm-2.3012085 -3.940155q-1.8186035 -0.6215515 -2.341858 -1.9396973q-0.43603516 -1.0902405 -0.0211792 -2.3024597q0.46044922 -1.3452606 1.6409912 -1.8995056q1.1658325 -0.5592804 2.7330933 -0.023666382q1.2567139 0.42951965 1.8496704 1.0614777q0.5979614 0.61717224 0.7492676 1.4779663q0.15130615 0.8608093 -0.14215088 1.7182312q-0.47058105 1.3748474 -1.6363525 1.9341431q-1.1755371 0.5394287 -2.831482 -0.026489258zm0.3895874 -1.1383057q1.2567749 0.4295044 2.0649414 0.09475708q0.8132324 -0.34951782 1.0966187 -1.1773987q0.2833252 -0.82785034 -0.15045166 -1.5870361q-0.44854736 -0.76426697 -1.7349243 -1.2038879q-1.2124023 -0.41433716 -2.0256348 -0.064819336q-0.8081665 0.3347473 -1.0864868 1.1478271q-0.2833252 0.82785034 0.14538574 1.6018372q0.43377686 0.7592163 1.6905518 1.1887207zm5.414856 -5.1572113l-6.535095 -2.2334595l0.34405518 -1.005249l0.9906006 0.338562q-0.5633545 -0.6218567 -0.67889404 -1.0081024q-0.11047363 -0.40101624 0.026123047 -0.8001709q0.19226074 -0.5617523 0.7444458 -1.0170135l0.8886719 0.73301697q-0.37823486 0.33306885 -0.5148926 0.7322235q-0.12646484 0.36956787 -0.005859375 0.74102783q0.12561035 0.3566742 0.46954346 0.60632324q0.5256958 0.39430237 1.220581 0.63179016l3.4301758 1.1723175l-0.37945557 1.1087341zm1.4423218 -4.21402l-6.5351562 -2.2334442l0.34405518 -1.005249l0.9314575 0.31834412q-0.8364258 -1.0784607 -0.37097168 -2.438507q0.20239258 -0.59132385 0.5814209 -1.0232086q0.37902832 -0.43188477 0.81481934 -0.54714966q0.42608643 -0.13508606 0.93463135 -0.07687378q0.3307495 0.04698181 1.0995483 0.30973816l4.0216675 1.3744354l-0.3795166 1.1087341l-3.977234 -1.3592682q-0.68011475 -0.23243713 -1.0509644 -0.21055603q-0.38555908 0.016815186 -0.6890869 0.2763672q-0.31835938 0.25447083 -0.47009277 0.6979675q-0.24291992 0.7095947 0.02355957 1.3786011q0.2664795 0.6689911 1.5232544 1.0985107l3.578064 1.2228394l-0.37945557 1.1087189zm4.8986206 -6.1097107l-1.0755005 -0.23544312q0.22497559 -0.3194275 0.31604004 -0.5855255q0.12646484 -0.36958313 0.06933594 -0.63679504q-0.042419434 -0.2621765 -0.21362305 -0.48580933q-0.12719727 -0.15905762 -0.7116089 -0.6229706q-0.078552246 -0.059890747 -0.23071289 -0.19444275l-7.3999023 0.24505615l0.40979004 -1.1974335l4.2505493 -0.066467285q0.81555176 -0.018493652 1.670044 0.0423584q-0.68829346 -0.44989014 -1.3415527 -0.9538574l-3.3191528 -2.7030182l0.37945557 -1.1087341l5.7886353 4.7523804q0.942688 0.76802063 1.2808228 1.1312408q0.44586182 0.4826355 0.5656738 0.9528961q0.13458252 0.47531128 -0.047607422 1.0075073q-0.10626221 0.31044006 -0.39068604 0.6590576zm-0.90686035 -12.405182l0.52264404 -1.0928192q0.9143677 0.60969543 1.2232056 1.540863q0.2991333 0.91134644 -0.0904541 2.0496368q-0.4907837 1.4339752 -1.6663208 1.9734192q-1.1754761 0.5394592 -2.7575684 -0.0012207031q-1.6559448 -0.5659485 -2.2694092 -1.7168121q-0.623291 -1.1707153 -0.15777588 -2.5307617q0.45031738 -1.3156891 1.6207886 -1.8403625q1.1704712 -0.52467346 2.796814 0.031158447q0.103515625 0.035369873 0.29571533 0.10105896l-1.6696777 4.878433q1.0996094 0.30973816 1.8634033 -0.040161133q0.7490845 -0.3549652 1.0273438 -1.1680298q0.21252441 -0.6208954 0.04876709 -1.155716q-0.17858887 -0.5398865 -0.7874756 -1.0286865zm-3.048462 3.020172l1.2496948 -3.6514282q-0.838501 -0.20401001 -1.3688354 -0.0054779053q-0.83270264 0.30986023 -1.1210938 1.1524963q-0.26312256 0.76872253 0.07727051 1.4629822q0.32562256 0.68922424 1.1629639 1.0414276zm6.010132 -4.8216553l-9.0338745 -3.0874176l0.3795166 -1.1087341l9.0338745 3.0874176l-0.3795166 1.1087341zm-1.1395264 -3.0398407l0.19702148 -1.1545868q0.7007446 0.12390137 1.1972656 -0.16874695q0.48675537 -0.3125 0.744812 -1.0664368q0.26312256 -0.76872253 0.07910156 -1.2444153q-0.184021 -0.47569275 -0.5979614 -0.61717224q-0.3696289 -0.12632751 -0.7078247 0.13789368q-0.22375488 0.17121887 -0.7541504 0.9971924q-0.73046875 1.1208801 -1.1141357 1.5181427q-0.39343262 0.37742615 -0.86383057 0.49736023q-0.48016357 0.100097656 -0.9680786 -0.06665039q-0.42877197 -0.14654541 -0.732666 -0.4650421q-0.31359863 -0.3383484 -0.44854736 -0.76426697q-0.086364746 -0.3267212 -0.06762695 -0.81570435q0.018737793 -0.4889679 0.19580078 -1.0063782q0.26312256 -0.76872253 0.68218994 -1.2694702q0.41912842 -0.5007324 0.8996582 -0.65023804q0.4658203 -0.15455627 1.1369629 -0.040756226l-0.22149658 1.1296997q-0.52801514 -0.09788513 -0.9303589 0.16090393q-0.41711426 0.25372314 -0.6397705 0.90419006q-0.26306152 0.76872253 -0.123046875 1.1798553q0.14001465 0.41111755 0.48010254 0.52734375q0.22180176 0.075790405 0.44476318 0.0033874512q0.22802734 -0.08720398 0.44244385 -0.32765198q0.114746094 -0.14241028 0.61486816 -0.87968445q0.71520996 -1.0765228 1.0791016 -1.4640656q0.35412598 -0.4073639 0.82958984 -0.54208374q0.4755249 -0.13471985 1.0373535 0.057296753q0.5618286 0.1920166 0.9384155 0.68400574q0.37664795 0.49197388 0.43023682 1.2038116q0.05871582 0.69706726 -0.20440674 1.4657898q-0.43511963 1.271347 -1.1950684 1.7546844q-0.75994873 0.48332214 -1.8607178 0.3217926zm3.6949463 -11.278305l0.5227051 -1.0928192q0.91430664 0.60969543 1.2231445 1.540863q0.2991333 0.91134644 -0.0904541 2.0496368q-0.4907837 1.4339752 -1.6663208 1.9734192q-1.1754761 0.5394592 -2.7575073 -0.0012207031q-1.6560059 -0.5659485 -2.2694702 -1.7168121q-0.62323 -1.1707153 -0.15777588 -2.5307617q0.45031738 -1.3156891 1.6207886 -1.8403625q1.1704712 -0.52467346 2.796875 0.031158447q0.10345459 0.035369873 0.2956543 0.10105896l-1.6696777 4.878433q1.0996094 0.30973816 1.8634033 -0.040161133q0.7490845 -0.3549652 1.0273438 -1.1680298q0.21252441 -0.6208954 0.04876709 -1.155716q-0.17858887 -0.5398865 -0.7874756 -1.0286865zm-3.048462 3.020172l1.2496948 -3.6514282q-0.83843994 -0.20401001 -1.3688354 -0.0054779053q-0.83270264 0.30986023 -1.1210938 1.1524963q-0.26312256 0.76872253 0.07727051 1.4629822q0.32562256 0.68922424 1.1629639 1.0414276z" fill-rule="nonzero"/><path fill="#fce5cd" d="m401.43307 12.947507l189.6063 0l0 90.173225l-189.6063 0z" fill-rule="evenodd"/><path stroke="#000000" stroke-width="1.0" stroke-linejoin="round" stroke-linecap="butt" d="m401.43307 12.947507l189.6063 0l0 90.173225l-189.6063 0z" fill-rule="evenodd"/><path fill="#000000" fill-opacity="0.0" d="m463.85828 37.026245l64.75592 0l0 42.015747l-64.75592 0z" fill-rule="evenodd"/><path fill="#000000" d="m473.70203 59.64937l1.65625 -0.140625q0.125 1.0 0.546875 1.640625q0.4375 0.640625 1.34375 1.046875q0.921875 0.390625 2.0625 0.390625q1.0 0 1.78125 -0.296875q0.78125 -0.296875 1.15625 -0.8125q0.375 -0.53125 0.375 -1.15625q0 -0.625 -0.375 -1.09375q-0.359375 -0.46875 -1.1875 -0.796875q-0.546875 -0.203125 -2.390625 -0.640625q-1.828125 -0.453125 -2.5625 -0.84375q-0.96875 -0.5 -1.4375 -1.234375q-0.46875 -0.75 -0.46875 -1.671875q0 -1.0 0.578125 -1.875q0.578125 -0.890625 1.671875 -1.34375q1.109375 -0.453125 2.453125 -0.453125q1.484375 0 2.609375 0.484375q1.140625 0.46875 1.75 1.40625q0.609375 0.921875 0.65625 2.09375l-1.6875 0.125q-0.140625 -1.265625 -0.9375 -1.90625q-0.78125 -0.65625 -2.3125 -0.65625q-1.609375 0 -2.34375 0.59375q-0.734375 0.59375 -0.734375 1.421875q0 0.71875 0.53125 1.171875q0.5 0.46875 2.65625 0.96875q2.15625 0.484375 2.953125 0.84375q1.171875 0.53125 1.71875 1.359375q0.5625 0.828125 0.5625 1.90625q0 1.0625 -0.609375 2.015625q-0.609375 0.9375 -1.75 1.46875q-1.140625 0.515625 -2.578125 0.515625q-1.8125 0 -3.046875 -0.53125q-1.21875 -0.53125 -1.921875 -1.59375q-0.6875 -1.0625 -0.71875 -2.40625zm11.568573 4.296875l5.125 -13.359375l1.90625 0l5.46875 13.359375l-2.015625 0l-1.546875 -4.046875l-5.59375 0l-1.46875 4.046875l-1.875 0zm3.859375 -5.484375l4.53125 0l-1.40625 -3.703125q-0.625 -1.6875 -0.9375 -2.765625q-0.265625 1.28125 -0.71875 2.546875l-1.46875 3.921875zm9.974823 5.484375l0 -13.359375l1.78125 0l0 11.78125l6.5625 0l0 1.578125l-8.34375 0zm12.47467 0l0 -11.78125l-4.40625 0l0 -1.578125l10.578125 0l0 1.578125l-4.40625 0l0 11.78125l-1.765625 0z" fill-rule="nonzero"/><path fill="#000000" fill-opacity="0.0" d="m496.2362 103.120735l0.56695557 246.23624" fill-rule="evenodd"/><path stroke="#000000" stroke-width="1.0" stroke-linejoin="round" stroke-linecap="butt" d="m496.2362 103.120735l0.5531311 240.23624" fill-rule="evenodd"/><path fill="#000000" stroke="#000000" stroke-width="1.0" stroke-linecap="butt" d="m495.1376 343.36078l1.6621704 4.5342712l1.6412964 -4.54187z" fill-rule="evenodd"/><path fill="#000000" fill-opacity="0.0" d="m470.74014 275.8596l0 -115.622055l35.559082 0l0 115.622055z" fill-rule="evenodd"/><path fill="#000000" d="m492.54016 265.8752l-9.546875 0l0 -1.90625l6.765625 -2.25q0.9375 -0.3125 1.40625 -0.46875q-0.515625 -0.15625 -1.53125 -0.5l-6.640625 -2.28125l0 -1.703125l9.546875 0l0 1.21875l-7.984375 0l7.984375 2.765625l0 1.140625l-8.125 2.765625l8.125 0l0 1.21875zm-0.859375 -15.5086975q0.5625 0.65625 0.796875 1.265625q0.21875 0.59375 0.21875 1.28125q0 1.140625 -0.546875 1.75q-0.5625 0.609375 -1.4375 0.609375q-0.5 0 -0.921875 -0.21875q-0.421875 -0.234375 -0.671875 -0.609375q-0.25 -0.375 -0.390625 -0.84375q-0.078125 -0.34375 -0.171875 -1.046875q-0.171875 -1.421875 -0.40625 -2.09375q-0.234375 0 -0.296875 0q-0.71875 0 -1.015625 0.328125q-0.390625 0.453125 -0.390625 1.34375q0 0.8125 0.296875 1.21875q0.28125 0.390625 1.015625 0.578125l-0.15625 1.140625q-0.734375 -0.15625 -1.1875 -0.515625q-0.453125 -0.359375 -0.6875 -1.03125q-0.25 -0.671875 -0.25 -1.5625q0 -0.890625 0.203125 -1.4375q0.203125 -0.5625 0.53125 -0.8125q0.3125 -0.265625 0.796875 -0.375q0.296875 -0.046875 1.078125 -0.046875l1.5625 0q1.625 0 2.0625 -0.078125q0.4375 -0.078125 0.828125 -0.296875l0 1.21875q-0.359375 0.1875 -0.859375 0.234375zm-2.609375 0.09375q0.265625 0.640625 0.4375 1.921875q0.109375 0.71875 0.25 1.015625q0.125 0.296875 0.375 0.46875q0.25 0.15625 0.546875 0.15625q0.46875 0 0.78125 -0.34375q0.3125 -0.359375 0.3125 -1.046875q0 -0.671875 -0.296875 -1.203125q-0.296875 -0.53125 -0.8125 -0.78125q-0.390625 -0.1875 -1.171875 -0.1875l-0.421875 0zm3.46875 -2.9906006l-6.90625 0l0 -1.0625l0.984375 0q-1.140625 -0.75 -1.140625 -2.1875q0 -0.625 0.21875 -1.15625q0.21875 -0.53125 0.59375 -0.78125q0.359375 -0.265625 0.859375 -0.375q0.328125 -0.0625 1.140625 -0.0625l4.25 0l0 1.171875l-4.203125 0q-0.71875 0 -1.0625 0.140625q-0.359375 0.140625 -0.5625 0.484375q-0.21875 0.34375 -0.21875 0.8125q0 0.75 0.46875 1.296875q0.46875 0.546875 1.796875 0.546875l3.78125 0l0 1.171875zm-0.859375 -11.928101q0.5625 0.65625 0.796875 1.265625q0.21875 0.59375 0.21875 1.28125q0 1.140625 -0.546875 1.75q-0.5625 0.609375 -1.4375 0.609375q-0.5 0 -0.921875 -0.21875q-0.421875 -0.234375 -0.671875 -0.609375q-0.25 -0.375 -0.390625 -0.84375q-0.078125 -0.34375 -0.171875 -1.046875q-0.171875 -1.421875 -0.40625 -2.09375q-0.234375 0 -0.296875 0q-0.71875 0 -1.015625 0.328125q-0.390625 0.453125 -0.390625 1.34375q0 0.8125 0.296875 1.21875q0.28125 0.390625 1.015625 0.578125l-0.15625 1.140625q-0.734375 -0.15625 -1.1875 -0.515625q-0.453125 -0.359375 -0.6875 -1.03125q-0.25 -0.671875 -0.25 -1.5625q0 -0.890625 0.203125 -1.4375q0.203125 -0.5625 0.53125 -0.8125q0.3125 -0.265625 0.796875 -0.375q0.296875 -0.046875 1.078125 -0.046875l1.5625 0q1.625 0 2.0625 -0.078125q0.4375 -0.078125 0.828125 -0.296875l0 1.21875q-0.359375 0.1875 -0.859375 0.234375zm-2.609375 0.09375q0.265625 0.640625 0.4375 1.921875q0.109375 0.71875 0.25 1.015625q0.125 0.296875 0.375 0.46875q0.25 0.15625 0.546875 0.15625q0.46875 0 0.78125 -0.34375q0.3125 -0.359375 0.3125 -1.046875q0 -0.671875 -0.296875 -1.203125q-0.296875 -0.53125 -0.8125 -0.78125q-0.390625 -0.1875 -1.171875 -0.1875l-0.421875 0zm4.046875 -2.7718506l0.15625 -1.140625q0.53125 -0.078125 0.78125 -0.40625q0.3125 -0.4375 0.3125 -1.1875q0 -0.8125 -0.328125 -1.25q-0.3125 -0.453125 -0.90625 -0.609375q-0.359375 -0.09375 -1.5 -0.078125q0.90625 0.765625 0.90625 1.90625q0 1.4375 -1.03125 2.21875q-1.03125 0.78125 -2.46875 0.78125q-0.984375 0 -1.8125 -0.359375q-0.84375 -0.359375 -1.296875 -1.03125q-0.453125 -0.6875 -0.453125 -1.609375q0 -1.21875 0.984375 -2.015625l-0.828125 0l0 -1.078125l5.96875 0q1.609375 0 2.28125 0.328125q0.6875 0.328125 1.078125 1.046875q0.390625 0.703125 0.390625 1.75q0 1.234375 -0.5625 2.0q-0.5625 0.75 -1.671875 0.734375zm-4.15625 -0.984375q1.359375 0 1.984375 -0.53125q0.625 -0.546875 0.625 -1.359375q0 -0.796875 -0.625 -1.34375q-0.625 -0.546875 -1.953125 -0.546875q-1.265625 0 -1.90625 0.5625q-0.640625 0.5625 -0.640625 1.359375q0 0.765625 0.640625 1.3125q0.625 0.546875 1.875 0.546875zm1.359375 -11.381226l0.140625 -1.203125q1.0625 0.28125 1.65625 1.0625q0.578125 0.765625 0.578125 1.96875q0 1.515625 -0.9375 2.40625q-0.9375 0.890625 -2.609375 0.890625q-1.75 0 -2.703125 -0.890625q-0.96875 -0.90625 -0.96875 -2.34375q0 -1.390625 0.9375 -2.265625q0.9375 -0.875 2.65625 -0.875q0.109375 0 0.3125 0l0 5.15625q1.140625 -0.0625 1.75 -0.640625q0.59375 -0.578125 0.59375 -1.4375q0 -0.65625 -0.328125 -1.109375q-0.34375 -0.453125 -1.078125 -0.71875zm-1.90625 3.84375l0 -3.859375q-0.859375 0.078125 -1.296875 0.4375q-0.6875 0.5625 -0.6875 1.453125q0 0.8125 0.546875 1.359375q0.53125 0.546875 1.4375 0.609375zm4.125 -6.5218506l-6.90625 0l0 -1.046875l0.96875 0q-0.515625 -0.328125 -0.8125 -0.859375q-0.3125 -0.546875 -0.3125 -1.234375q0 -0.78125 0.3125 -1.265625q0.3125 -0.484375 0.890625 -0.6875q-1.203125 -0.828125 -1.203125 -2.140625q0 -1.03125 0.578125 -1.578125q0.5625 -0.5625 1.734375 -0.5625l4.75 0l0 1.171875l-4.359375 0q-0.703125 0 -1.0 0.125q-0.3125 0.109375 -0.5 0.40625q-0.1875 0.296875 -0.1875 0.703125q0 0.71875 0.484375 1.203125q0.484375 0.484375 1.546875 0.484375l4.015625 0l0 1.171875l-4.484375 0q-0.78125 0 -1.171875 0.296875q-0.390625 0.28125 -0.390625 0.921875q0 0.5 0.265625 0.921875q0.25 0.421875 0.75 0.609375q0.5 0.1875 1.453125 0.1875l3.578125 0l0 1.171875zm-2.21875 -15.836807l0.140625 -1.203125q1.0625 0.28125 1.65625 1.0625q0.578125 0.765625 0.578125 1.96875q0 1.515625 -0.9375 2.40625q-0.9375 0.890625 -2.609375 0.890625q-1.75 0 -2.703125 -0.890625q-0.96875 -0.90625 -0.96875 -2.34375q0 -1.390625 0.9375 -2.265625q0.9375 -0.875 2.65625 -0.875q0.109375 0 0.3125 0l0 5.15625q1.140625 -0.0625 1.75 -0.640625q0.59375 -0.578125 0.59375 -1.4375q0 -0.65625 -0.328125 -1.109375q-0.34375 -0.453125 -1.078125 -0.71875zm-1.90625 3.84375l0 -3.859375q-0.859375 0.078125 -1.296875 0.4375q-0.6875 0.5625 -0.6875 1.453125q0 0.8125 0.546875 1.359375q0.53125 0.546875 1.4375 0.609375zm4.125 -6.5218506l-6.90625 0l0 -1.0625l0.984375 0q-1.140625 -0.75 -1.140625 -2.1875q0 -0.625 0.21875 -1.15625q0.21875 -0.53125 0.59375 -0.78125q0.359375 -0.265625 0.859375 -0.375q0.328125 -0.0625 1.140625 -0.0625l4.25 0l0 1.171875l-4.203125 0q-0.71875 0 -1.0625 0.140625q-0.359375 0.140625 -0.5625 0.484375q-0.21875 0.34375 -0.21875 0.8125q0 0.75 0.46875 1.296875q0.46875 0.546875 1.796875 0.546875l3.78125 0l0 1.171875zm-1.046875 -9.974976l1.03125 -0.171875q0.109375 0.5 0.109375 0.890625q0 0.640625 -0.203125 1.0q-0.203125 0.34375 -0.53125 0.484375q-0.328125 0.140625 -1.390625 0.140625l-3.96875 0l0 0.859375l-0.90625 0l0 -0.859375l-1.71875 0l-0.703125 -1.171875l2.421875 0l0 -1.171875l0.90625 0l0 1.171875l4.046875 0q0.5 0 0.640625 -0.046875q0.140625 -0.0625 0.234375 -0.203125q0.078125 -0.140625 0.078125 -0.40625q0 -0.203125 -0.046875 -0.515625z" fill-rule="nonzero"/><path fill="#fce5cd" d="m204.32283 125.08662l146.80315 0l0 81.5118l-146.80315 0z" fill-rule="evenodd"/><path stroke="#000000" stroke-width="1.0" stroke-linejoin="round" stroke-linecap="butt" d="m204.32283 125.08662l146.80315 0l0 81.5118l-146.80315 0z" fill-rule="evenodd"/><path fill="#000000" fill-opacity="0.0" d="m213.56693 147.2546l128.31497 0l0 42.015747l-128.31497 0z" fill-rule="evenodd"/><path fill="#000000" d="m223.47318 167.67459q0 -3.328125 1.78125 -5.203125q1.78125 -1.890625 4.609375 -1.890625q1.84375 0 3.328125 0.890625q1.484375 0.875 2.265625 2.46875q0.78125 1.578125 0.78125 3.578125q0 2.03125 -0.828125 3.640625q-0.8125 1.59375 -2.3125 2.421875q-1.5 0.828125 -3.25 0.828125q-1.875 0 -3.359375 -0.90625q-1.484375 -0.921875 -2.25 -2.5q-0.765625 -1.578125 -0.765625 -3.328125zm1.8125 0.015625q0 2.421875 1.296875 3.8125q1.296875 1.390625 3.265625 1.390625q2.0 0 3.28125 -1.40625q1.28125 -1.40625 1.28125 -3.984375q0 -1.625 -0.546875 -2.84375q-0.546875 -1.21875 -1.609375 -1.875q-1.0625 -0.671875 -2.375 -0.671875q-1.890625 0 -3.25 1.296875q-1.34375 1.28125 -1.34375 4.28125zm15.714554 6.484375l-3.6875 -9.671875l1.734375 0l2.078125 5.796875q0.328125 0.9375 0.625 1.9375q0.203125 -0.765625 0.609375 -1.828125l2.140625 -5.90625l1.6875 0l-3.65625 9.671875l-1.53125 0zm13.265625 -3.109375l1.6875 0.203125q-0.40625 1.484375 -1.484375 2.3125q-1.078125 0.8125 -2.765625 0.8125q-2.125 0 -3.375 -1.296875q-1.234375 -1.3125 -1.234375 -3.671875q0 -2.453125 1.25 -3.796875q1.265625 -1.34375 3.265625 -1.34375q1.9375 0 3.15625 1.328125q1.2343903 1.3125 1.2343903 3.703125q0 0.15625 0 0.4375l-7.2187653 0q0.09375 1.59375 0.90625 2.453125q0.8125 0.84375 2.015625 0.84375q0.90625 0 1.546875 -0.46875q0.640625 -0.484375 1.015625 -1.515625zm-5.390625 -2.65625l5.40625 0q-0.109375 -1.21875 -0.625 -1.828125q-0.78125 -0.953125 -2.03125 -0.953125q-1.125 0 -1.90625 0.765625q-0.765625 0.75 -0.84375 2.015625zm9.125717 5.765625l0 -9.671875l1.46875 0l0 1.46875q0.5625 -1.03125 1.03125 -1.359375q0.484375 -0.328125 1.0625 -0.328125q0.828125 0 1.6875 0.53125l-0.5625 1.515625q-0.609375 -0.359375 -1.203125 -0.359375q-0.546875 0 -0.96875 0.328125q-0.421875 0.328125 -0.609375 0.890625q-0.28125 0.875 -0.28125 1.921875l0 5.0625l-1.625 0zm8.915802 0l-3.6875 -9.671875l1.734375 0l2.078125 5.796875q0.328125 0.9375 0.625 1.9375q0.203125 -0.765625 0.609375 -1.828125l2.140625 -5.90625l1.6875 0l-3.65625 9.671875l-1.53125 0zm12.953125 -1.1875q-0.921875 0.765625 -1.765625 1.09375q-0.828125 0.3125 -1.796875 0.3125q-1.59375 0 -2.453125 -0.78125q-0.859375 -0.78125 -0.859375 -1.984375q0 -0.71875 0.328125 -1.296875q0.328125 -0.59375 0.84375 -0.9375q0.53125 -0.359375 1.1875 -0.546875q0.46875 -0.125 1.453125 -0.25q1.984375 -0.234375 2.921875 -0.5625q0.015625 -0.34375 0.015625 -0.421875q0 -1.0 -0.46875 -1.421875q-0.625 -0.546875 -1.875 -0.546875q-1.15625 0 -1.703125 0.40625q-0.546875 0.40625 -0.8125 1.421875l-1.609375 -0.21875q0.21875 -1.015625 0.71875 -1.640625q0.5 -0.640625 1.453125 -0.984375q0.953125 -0.34375 2.1875 -0.34375q1.25 0 2.015625 0.296875q0.78125 0.28125 1.140625 0.734375q0.375 0.4375 0.515625 1.109375q0.078125 0.421875 0.078125 1.515625l0 2.1875q0 2.28125 0.109375 2.890625q0.109375 0.59375 0.40625 1.15625l-1.703125 0q-0.265625 -0.515625 -0.328125 -1.1875zm-0.140625 -3.671875q-0.890625 0.375 -2.671875 0.625q-1.015625 0.140625 -1.4375 0.328125q-0.421875 0.1875 -0.65625 0.53125q-0.21875 0.34375 -0.21875 0.78125q0 0.65625 0.5 1.09375q0.5 0.4375 1.453125 0.4375q0.9375 0 1.671875 -0.40625q0.75 -0.421875 1.09375 -1.140625q0.265625 -0.5625 0.265625 -1.640625l0 -0.609375zm-3.921875 -7.328125q0 -0.671875 0.484375 -1.140625q0.5 -0.484375 1.15625 -0.484375q0.6875 0 1.15625 0.484375q0.484375 0.484375 0.484375 1.171875q0 0.703125 -0.484375 1.1875q-0.46875 0.484375 -1.140625 0.484375q-0.6875 0 -1.171875 -0.484375q-0.484375 -0.484375 -0.484375 -1.21875zm0.703125 0.015625q0 0.421875 0.28125 0.71875q0.28125 0.28125 0.6875 0.28125q0.390625 0 0.671875 -0.28125q0.28125 -0.296875 0.28125 -0.703125q0 -0.421875 -0.28125 -0.703125q-0.28125 -0.296875 -0.671875 -0.296875q-0.40625 0 -0.6875 0.296875q-0.28125 0.28125 -0.28125 0.6875zm7.1101074 12.96875l1.59375 0.234375q0.109375 0.75 0.5625 1.078125q0.609375 0.453125 1.671875 0.453125q1.140625 0 1.75 -0.453125q0.625 -0.453125 0.84375 -1.265625q0.125 -0.5 0.109375 -2.109375q-1.0625 1.265625 -2.671875 1.265625q-2.0 0 -3.09375 -1.4375q-1.09375 -1.4375 -1.09375 -3.453125q0 -1.390625 0.5 -2.5625q0.515625 -1.171875 1.453125 -1.796875q0.953125 -0.640625 2.25 -0.640625q1.703125 0 2.8125 1.375l0 -1.15625l1.515625 0l0 8.359375q0 2.265625 -0.46875 3.203125q-0.453125 0.9375 -1.453125 1.484375q-0.984375 0.546875 -2.453125 0.546875q-1.71875 0 -2.796875 -0.78125q-1.0625 -0.765625 -1.03125 -2.34375zm1.359375 -5.8125q0 1.90625 0.75 2.78125q0.765625 0.875 1.90625 0.875q1.125 0 1.890625 -0.859375q0.765625 -0.875 0.765625 -2.734375q0 -1.78125 -0.796875 -2.671875q-0.78125 -0.90625 -1.890625 -0.90625q-1.09375 0 -1.859375 0.890625q-0.765625 0.875 -0.765625 2.625zm9.328827 5.015625l0 -9.671875l1.46875 0l0 1.375q1.0625 -1.59375 3.078125 -1.59375q0.875 0 1.609375 0.3125q0.734375 0.3125 1.09375 0.828125q0.375 0.5 0.515625 1.203125q0.09375 0.453125 0.09375 1.59375l0 5.953125l-1.640625 0l0 -5.890625q0 -1.0 -0.203125 -1.484375q-0.1875 -0.5 -0.671875 -0.796875q-0.484375 -0.296875 -1.140625 -0.296875q-1.046875 0 -1.8125 0.671875q-0.75 0.65625 -0.75 2.515625l0 5.28125l-1.640625 0zm10.375732 -11.46875l0 -1.890625l1.640625 0l0 1.890625l-1.640625 0zm0 11.46875l0 -9.671875l1.640625 0l0 9.671875l-1.640625 0zm4.144806 0l0 -9.671875l1.46875 0l0 1.375q1.0625 -1.59375 3.078125 -1.59375q0.875 0 1.609375 0.3125q0.734375 0.3125 1.09375 0.828125q0.375 0.5 0.515625 1.203125q0.09375 0.453125 0.09375 1.59375l0 5.953125l-1.640625 0l0 -5.890625q0 -1.0 -0.203125 -1.484375q-0.1875 -0.5 -0.671875 -0.796875q-0.484375 -0.296875 -1.140625 -0.296875q-1.046875 0 -1.8125 0.671875q-0.75 0.65625 -0.75 2.515625l0 5.28125l-1.640625 0zm10.063232 0.796875l1.59375 0.234375q0.109375 0.75 0.5625 1.078125q0.609375 0.453125 1.671875 0.453125q1.140625 0 1.75 -0.453125q0.625 -0.453125 0.84375 -1.265625q0.125 -0.5 0.109375 -2.109375q-1.0625 1.265625 -2.671875 1.265625q-2.0 0 -3.09375 -1.4375q-1.09375 -1.4375 -1.09375 -3.453125q0 -1.390625 0.5 -2.5625q0.515625 -1.171875 1.453125 -1.796875q0.953125 -0.640625 2.25 -0.640625q1.703125 0 2.8125 1.375l0 -1.15625l1.515625 0l0 8.359375q0 2.265625 -0.46875 3.203125q-0.453125 0.9375 -1.453125 1.484375q-0.984375 0.546875 -2.453125 0.546875q-1.71875 0 -2.796875 -0.78125q-1.0625 -0.765625 -1.03125 -2.34375zm1.359375 -5.8125q0 1.90625 0.75 2.78125q0.765625 0.875 1.90625 0.875q1.125 0 1.890625 -0.859375q0.765625 -0.875 0.765625 -2.734375q0 -1.78125 -0.796875 -2.671875q-0.78125 -0.90625 -1.890625 -0.90625q-1.09375 0 -1.859375 0.890625q-0.765625 0.875 -0.765625 2.625z" fill-rule="nonzero"/><path fill="#000000" fill-opacity="0.0" d="m325.1329 427.39896c-17.630371 -0.96325684 -95.28084 24.181976 -105.78215 -5.779541c-10.501312 -29.961487 35.645233 -144.99124 42.774277 -173.98949" fill-rule="evenodd"/><path stroke="#000000" stroke-width="1.0" stroke-linejoin="round" stroke-linecap="butt" d="m325.1329 427.39896c-17.630371 -0.96325684 -95.28084 24.181976 -105.78215 -5.779541c-10.501312 -29.961487 35.645233 -144.99124 42.774277 -173.98949" fill-rule="evenodd"/><path fill="#000000" fill-opacity="0.0" d="m262.10236 247.70079l15.62204 -41.10237" fill-rule="evenodd"/><path stroke="#000000" stroke-width="1.0" stroke-linejoin="round" stroke-linecap="butt" d="m262.10236 247.70079l13.490356 -35.493805" fill-rule="evenodd"/><path fill="#000000" stroke="#000000" stroke-width="1.0" stroke-linecap="butt" d="m277.1367 212.79381l0.06832886 -4.8288574l-3.15625 3.6552124z" fill-rule="evenodd"/></g></svg>